<?xml version="1.0" encoding="UTF-8"?>
<svg xmlns="http://www.w3.org/2000/svg" version="1.1" viewBox="0 0 135 231">
  <defs>
    <style>
      .cls-1 {
        fill: #f5a56a;
      }

      .cls-1, .cls-2, .cls-3, .cls-4 {
        fill-rule: evenodd;
      }

      .cls-2 {
        fill: #fff;
      }

      .cls-3 {
        fill: #fff6e6;
      }

      .cls-4 {
        fill: #aa9972;
      }

      .cls-5 {
        fill: #ededed;
        stroke: #878787;
        stroke-miterlimit: 10;
        stroke-width: 2px;
      }

      .cls-6 {
        fill: #475663;
      }
    </style>
  </defs>
  <!-- Generator: Adobe Illustrator 28.6.0, SVG Export Plug-In . SVG Version: 1.2.0 Build 709)  -->
  <g>
    <g id="Capa_1">
      <g>
        <path class="cls-4" d="M24.5,3h86c11.8,0,21.4,9.7,21.4,21.6v181.1c0,11.8-9.6,21.5-21.4,21.5H24.5c-11.8,0-21.5-9.7-21.5-21.5V24.6C3,12.7,12.8,3,24.5,3Z"/>
        <path class="cls-5" d="M131.9,31H3v168.2h128.9V31Z"/>
        <path class="cls-2" d="M119.1,31h12.8v168.2H15.8L119.1,31Z"/>
        <path class="cls-2" d="M41.4,13.4h34.6c2.2,0,4,1.8,4,3.9s-1.8,4.1-4,4.1h-34.6c-2.2,0-4-1.8-4-4.1s1.8-3.9,4-3.9ZM91.1,10.8c3.6,0,6.6,2.9,6.6,6.5s-3,6.6-6.6,6.6-6.6-3-6.6-6.6,3-6.5,6.6-6.5Z"/>
        <path class="cls-2" d="M67.5,203.8c5.2,0,9.4,4.3,9.4,9.5s-4.3,9.5-9.4,9.5-9.4-4.2-9.4-9.5,4.2-9.5,9.4-9.5Z"/>
        <path class="cls-6" d="M106,64.2c3.4,0,6.4,1.4,8.6,3.6,2.2,2.3,3.6,5.3,3.6,8.7v26.9h-6.3v-26.9c0-1.6-.7-3.1-1.7-4.2-1.1-1.1-2.7-1.8-4.3-1.8h-26.8v-6.3h26.8ZM118.2,126.9v26.8c0,3.5-1.3,6.5-3.6,8.8-2.2,2.3-5.3,3.6-8.6,3.6h-26.8v-6.3h26.8c1.6,0,3.1-.7,4.3-1.8,1-1.1,1.7-2.6,1.7-4.3v-26.8h6.3ZM55.7,166.1h-26.7c-3.4,0-6.5-1.3-8.8-3.6-2.2-2.3-3.6-5.3-3.6-8.8v-26.8h6.3v26.8c0,1.7.7,3.1,1.8,4.3,1.1,1.1,2.6,1.8,4.3,1.8h26.7v6.3h0ZM16.7,103.4v-26.9c0-3.4,1.3-6.4,3.6-8.7,2.2-2.3,5.4-3.6,8.8-3.6h26.7v6.3h-26.7c-1.7,0-3.1.7-4.3,1.8-1.1,1-1.8,2.6-1.8,4.2v26.9h-6.3,0Z"/>
        <path class="cls-3" d="M67.5,77.8c20.5,0,37.1,16.7,37.1,37.2s-16.6,37.2-37.1,37.2-37.1-16.7-37.1-37.2,16.6-37.2,37.1-37.2Z"/>
        <path class="cls-4" d="M98,136.2c-6.6,9.8-17.8,16.1-30.5,16.1s-23.9-6.3-30.6-16.1c4.2-12.9,16.3-22.4,30.6-22.4s26.5,9.5,30.5,22.4Z"/>
        <path class="cls-1" d="M67.5,88.5c10.7,0,19.3,8.7,19.3,19.4s-8.6,19.5-19.3,19.5-19.4-8.7-19.4-19.5,8.8-19.4,19.4-19.4Z"/>
      </g>
    </g>
  </g>
</svg>