<svg version="1.1" id="Layer_1" xmlns="http://www.w3.org/2000/svg" xmlns:xlink="http://www.w3.org/1999/xlink" x="0px" y="0px"
	 width="100%" viewBox="0 0 490 227" enable-background="new 0 0 490 227" xml:space="preserve">

<path fill="#1B1B19" opacity="1.000000" stroke="none" 
	d="
M300.531342,0.999999 
	C299.252869,17.757404 297.505737,34.514809 295.600983,52.784420 
	C299.476440,49.751987 301.861603,47.454426 304.627594,45.789471 
	C327.277985,32.155273 363.286926,37.309525 370.670685,75.176735 
	C375.652466,100.725410 371.077423,125.067535 352.981750,145.194580 
	C338.650269,161.134827 314.428528,166.944962 295.708557,156.743256 
	C292.301514,154.886551 289.497833,151.922729 286.190125,149.290512 
	C285.840027,150.041611 285.345551,150.720276 285.203613,151.466034 
	C283.772430,158.986343 283.788696,158.992676 276.360443,158.998810 
	C270.865021,159.003342 265.356262,158.761215 259.878174,159.069077 
	C255.158875,159.334274 253.534470,157.338913 253.990936,152.903137 
	C254.823898,144.808762 255.539352,136.702286 256.369476,128.607590 
	C257.893951,113.741875 259.444763,98.878777 261.023956,84.018761 
	C262.901459,66.351273 264.823730,48.688541 266.720062,31.023043 
	C267.765350,21.286179 268.797241,11.547879 269.917603,1.405113 
	C280.020905,1.000000 290.041779,1.000000 300.531342,0.999999 
M304.160706,70.573883 
	C291.185272,83.432495 288.301208,99.276108 291.089569,116.513977 
	C292.531036,125.425247 297.003448,132.711990 306.525513,134.708099 
	C316.411713,136.780548 324.935242,133.766312 331.275208,125.615128 
	C339.848450,114.592705 342.256409,101.741875 340.656677,88.376320 
	C338.112244,67.118011 321.708923,59.065571 304.160706,70.573883 
z"/>
<path fill="#1B1B19" opacity="1.000000" stroke="none" 
	d="
M491.000000,87.531342 
	C490.008636,92.201073 488.618317,96.353737 488.101624,100.612396 
	C486.621765,112.809715 485.505432,125.050995 484.226593,137.272934 
	C483.749451,141.832916 484.054016,145.953049 487.001984,150.030441 
	C488.636810,152.291595 488.870270,156.010101 488.610413,158.973068 
	C488.509857,160.119476 485.312775,161.834763 483.506531,161.859818 
	C467.186096,162.086197 450.860474,162.091324 434.538055,161.955368 
	C426.566559,161.889008 418.537384,161.908768 410.640900,160.981506 
	C388.462585,158.377197 381.353912,143.743301 384.525269,124.237473 
	C387.478058,106.075722 399.232788,96.072159 416.539001,92.172318 
	C428.541992,89.467529 440.691833,87.418076 452.760620,84.998917 
	C455.517120,84.446388 459.063080,85.116478 459.908539,81.022743 
	C461.208984,74.726021 459.697021,69.409889 455.906769,67.024414 
	C445.787201,60.655437 428.347412,65.576981 422.818207,76.101776 
	C421.927460,77.797226 419.598785,79.700783 417.834412,79.804733 
	C410.696899,80.225266 403.519653,79.930229 396.358032,80.000206 
	C392.532196,80.037575 392.039642,78.266632 392.766541,74.890808 
	C396.830017,56.020382 412.157806,41.958393 432.448761,40.292042 
	C443.271851,39.403217 454.309998,40.001190 465.164459,40.935028 
	C476.703888,41.927803 485.290192,48.108948 490.685242,58.874718 
	C491.000000,68.354225 491.000000,77.708458 491.000000,87.531342 
M416.504425,121.126465 
	C414.654388,129.690613 416.836456,134.703964 424.095276,135.495819 
	C429.707733,136.108032 435.735809,135.564407 441.218323,134.143036 
	C451.563782,131.460907 457.387390,119.156349 456.803680,102.704956 
	C446.408691,105.524727 436.028625,107.725571 426.162231,111.331825 
	C422.428986,112.696381 419.881226,117.304413 416.504425,121.126465 
z"/>
<path fill="#00BEB0" opacity="1.000000" stroke="none" 
	d="
M1.000000,154.416656 
	C1.659290,153.425003 2.839061,152.900620 2.900633,152.267502 
	C4.014717,140.811691 4.861321,129.329132 6.040052,117.880592 
	C7.181166,106.797424 8.711007,95.754784 9.923878,84.678329 
	C10.746912,77.162018 11.389924,69.623680 11.973898,62.084393 
	C12.326456,57.532764 14.540458,55.821747 18.251064,58.145416 
	C25.018349,62.383255 31.524641,67.042824 38.080288,71.611855 
	C42.191380,74.477127 42.462452,78.782433 41.887688,83.191795 
	C41.022022,89.832809 39.809845,96.430931 39.036438,103.081192 
	C37.595776,115.468971 36.317146,127.876366 35.070618,140.285583 
	C34.576691,145.202621 34.560925,150.176559 33.866425,155.059006 
	C33.663471,156.485764 31.891571,158.797684 30.805223,158.817017 
	C21.164545,158.988617 11.516316,158.735931 1.435157,158.804230 
	C1.000000,157.611115 1.000000,156.222214 1.000000,154.416656 
z"/>
<path fill="#1B1B19" opacity="1.000000" stroke="none" 
	d="
M1.000001,204.449982 
	C2.303592,200.369705 3.460610,196.676834 4.972148,193.135300 
	C5.736275,191.344940 7.141628,189.828262 8.257065,188.187836 
	C9.981643,189.416794 12.173442,190.315781 13.326491,191.948380 
	C15.289091,194.727234 16.598391,197.967484 19.371281,200.923660 
	C20.084063,197.958817 20.458996,194.849579 21.640467,192.085037 
	C22.314138,190.508698 24.303694,189.494720 25.700729,188.227524 
	C26.289898,189.848877 27.573000,191.576614 27.343660,193.072479 
	C26.514153,198.482956 25.342960,203.860306 23.919949,209.147690 
	C23.537046,210.570419 21.916758,212.463226 20.662794,212.630753 
	C19.310484,212.811447 17.161095,211.586334 16.344938,210.332840 
	C14.218898,207.067566 12.632265,203.451096 9.578470,200.119629 
	C9.044262,202.626602 8.349486,205.112320 8.013782,207.645584 
	C7.520170,211.370453 5.865614,213.500900 1.410810,212.998535 
	C1.000000,210.299988 1.000000,207.599976 1.000001,204.449982 
z"/>
<path fill="#1B1B19" opacity="1.000000" stroke="none" 
	d="
M222.603821,46.312431 
	C237.379150,55.391678 243.824982,69.116653 244.743896,85.315300 
	C245.801178,103.953079 242.579712,121.927322 231.254913,137.427399 
	C220.877411,151.630905 206.703522,159.843872 189.066711,160.859406 
	C180.550476,161.349792 171.705978,161.373047 163.422974,159.637466 
	C143.510880,155.465149 130.079269,140.215836 128.260483,119.965378 
	C126.725433,102.874084 128.240158,86.006226 136.761383,70.501015 
	C146.327774,53.094067 161.204132,43.302868 180.597183,40.072186 
	C195.124786,37.652035 209.095474,39.238483 222.603821,46.312431 
M186.076874,135.950546 
	C190.923660,133.594315 196.805115,132.282547 200.429413,128.692245 
	C212.886658,116.351837 215.881134,100.826378 212.450409,84.026978 
	C210.517654,74.562752 205.182541,67.344734 195.312500,65.260941 
	C184.399902,62.957024 175.339355,66.789421 168.579758,75.690880 
	C160.498215,86.333168 158.043793,98.642792 159.195450,111.575027 
	C160.500870,126.233871 168.379517,137.534515 186.076874,135.950546 
z"/>
<path fill="#1B1B19" opacity="1.000000" stroke="none" 
	d="
M83.782715,88.609962 
	C83.896942,87.321617 83.925911,86.488716 83.988724,85.658363 
	C85.313194,68.151955 74.090012,63.578899 59.490257,66.868690 
	C53.502125,68.218018 48.814816,67.250015 43.385597,64.530952 
	C33.304859,59.482327 22.692913,55.457153 12.160562,51.370770 
	C9.107882,50.186378 7.371280,48.705734 7.066033,45.474640 
	C6.600643,40.548378 7.759700,39.043091 12.729622,39.032307 
	C35.726665,38.982388 58.731346,38.663128 81.718170,39.151611 
	C94.933769,39.432446 107.378380,43.253551 112.614227,56.944263 
	C115.198212,63.700863 116.207726,71.674667 115.629753,78.914085 
	C113.620293,104.083565 110.553375,129.167572 108.031990,154.298462 
	C107.692070,157.686523 106.237755,159.019455 102.991577,158.995728 
	C95.992889,158.944534 88.991386,158.884659 81.995316,159.031830 
	C78.363441,159.108231 76.667107,157.667465 77.015678,154.019928 
	C77.663712,147.238708 78.298103,140.455872 79.003418,133.680511 
	C80.551758,118.806953 82.140808,103.937637 83.782715,88.609962 
z"/>
<path fill="#1B1B19" opacity="1.000000" stroke="none" 
	d="
M427.983459,207.991821 
	C428.607086,209.445435 428.905731,210.718323 429.204346,211.991241 
	C427.294098,212.293808 425.311401,213.042786 423.498016,212.748474 
	C422.199585,212.537735 420.461121,211.120132 420.112457,209.899979 
	C419.598175,208.100098 420.317078,205.985443 420.186493,204.026459 
	C420.080444,202.435776 419.497406,200.876892 419.125885,199.303909 
	C417.489624,200.027863 414.914795,200.376221 414.439209,201.564636 
	C413.742920,203.304626 414.376862,205.685425 414.828522,207.707184 
	C414.956543,208.280060 416.423523,208.553772 417.251007,208.952423 
	C417.090820,213.606323 413.878723,212.932114 411.140381,212.933029 
	C408.193939,212.934006 407.102570,211.229111 407.019806,208.465561 
	C406.908875,204.759720 406.607147,201.059952 406.463501,197.354614 
	C406.357300,194.615005 412.190704,189.126190 415.356873,188.656769 
	C416.352539,190.434631 417.293701,192.115189 418.234863,193.795746 
	C420.024750,192.682556 421.788208,191.523499 423.612823,190.470459 
	C425.113831,189.604218 426.687500,188.863831 427.620819,188.381744 
	C429.301666,190.817764 431.076691,192.548615 431.698608,194.624847 
	C432.041016,195.767960 430.824860,198.058228 429.650421,198.846710 
	C426.246216,201.132156 425.416382,203.935043 427.983459,207.991821 
z"/>
<path fill="#1B1B19" opacity="1.000000" stroke="none" 
	d="
M229.485016,195.575165 
	C232.819626,193.111374 234.562881,194.003601 234.972427,197.744034 
	C235.124756,199.135208 235.327667,200.520813 236.578140,202.155121 
	C237.433319,200.654037 238.129486,199.027145 239.189178,197.687866 
	C240.213013,196.393906 241.611542,195.396378 242.845474,194.268631 
	C243.833313,195.656052 245.008011,196.952652 245.742142,198.463364 
	C246.217484,199.441498 246.048813,200.732605 246.222809,202.402466 
	C249.517838,199.676437 248.588348,191.821487 256.356506,194.865341 
	C253.850067,200.295807 251.617081,205.632889 248.877777,210.696014 
	C248.242508,211.870224 245.827972,212.691528 244.332077,212.557785 
	C243.458542,212.479691 242.618118,210.252731 242.073151,208.870193 
	C241.674744,207.859436 241.782059,206.649323 240.673813,205.088104 
	C239.705948,206.858521 239.077835,208.996368 237.673630,210.294952 
	C236.298370,211.566727 234.148697,212.470947 232.305923,212.531479 
	C231.588730,212.555038 230.298172,209.890076 230.108414,208.346542 
	C229.603516,204.239960 229.555283,200.077255 229.485016,195.575165 
z"/>
<path fill="#1B1B19" opacity="1.000000" stroke="none" 
	d="
M381.173309,195.817841 
	C385.674652,204.657440 380.568481,213.096405 371.243896,212.991241 
	C360.793213,212.873352 360.780914,212.870911 362.851227,202.497223 
	C363.600586,198.742432 364.117920,194.897339 365.351379,191.302887 
	C365.915558,189.658813 367.956909,188.521652 369.328339,187.154602 
	C370.058289,188.520157 370.625244,190.013580 371.566406,191.213425 
	C372.418671,192.299835 373.547211,193.384491 374.790253,193.899597 
	C376.716492,194.697861 378.843628,195.011322 381.173309,195.817841 
M371.221313,199.603973 
	C370.322296,201.428619 369.010345,203.186005 368.697571,205.106140 
	C368.539917,206.073944 370.194031,207.336884 371.028870,208.466354 
	C372.933319,206.480362 375.809753,204.780823 376.500427,202.437134 
	C377.398224,199.390594 374.510437,198.930420 371.221313,199.603973 
z"/>
<path fill="#00BEB0" opacity="1.000000" stroke="none" 
	d="
M114.482269,212.619598 
	C115.864487,203.983475 117.576195,195.612274 119.305962,187.152725 
	C121.530891,187.152725 123.482132,187.152725 125.526360,187.152725 
	C125.077057,189.310211 124.657013,191.327225 124.168335,193.673813 
	C125.274612,193.784424 126.348671,193.969925 127.425385,193.986862 
	C134.759613,194.102188 135.920822,195.020447 135.999573,200.865585 
	C136.100769,208.377579 132.807083,212.845047 126.906845,212.974808 
	C122.877762,213.063400 118.843620,212.922699 114.482269,212.619598 
M126.553162,199.003906 
	C120.398643,198.929916 122.999344,204.550674 120.972870,207.182571 
	C124.465218,209.076279 127.621376,208.755051 128.898102,206.112305 
	C130.133926,203.554276 131.889984,200.507904 126.553162,199.003906 
z"/>
<path fill="#00BEB0" opacity="1.000000" stroke="none" 
	d="
M183.993805,207.908905 
	C185.444168,200.813278 186.888275,194.142700 188.382278,187.241730 
	C190.317657,187.241730 192.261566,187.241730 194.545975,187.241730 
	C193.684921,190.945435 192.830139,194.622162 192.027466,198.074722 
	C196.188980,196.361969 200.307816,194.666779 204.426651,192.971573 
	C204.641144,193.393845 204.855637,193.816116 205.070129,194.238373 
	C202.459137,196.799835 199.848145,199.361282 197.118942,202.038712 
	C198.832031,205.606155 200.421478,208.916153 202.040756,212.288223 
	C195.274490,215.399841 194.577469,209.335724 192.006241,205.556030 
	C189.014175,208.080032 190.342453,215.991074 183.035034,212.247040 
	C183.322464,211.066284 183.655014,209.700119 183.993805,207.908905 
z"/>
<path fill="#1B1B19" opacity="1.000000" stroke="none" 
	d="
M97.798653,205.724152 
	C97.346069,211.006897 95.417519,214.009079 89.855141,212.774551 
	C89.236565,212.637238 88.537849,212.887344 87.874428,212.921829 
	C80.170631,213.322144 78.470039,212.429779 78.045074,207.777527 
	C77.428329,201.025787 81.352722,195.038742 86.989494,194.131973 
	C98.850655,192.223862 100.028397,193.433517 97.798653,205.724152 
M84.154266,205.387939 
	C85.540825,206.349792 86.927391,207.311646 88.313957,208.273499 
	C89.633087,206.370621 91.180885,204.574036 92.142738,202.505051 
	C92.463478,201.815125 90.973656,199.461090 90.837280,199.504898 
	C88.910713,200.123642 86.969513,200.859177 85.269646,201.940308 
	C84.604240,202.363495 84.529602,203.715591 84.154266,205.387939 
z"/>
<path fill="#00BEB0" opacity="1.000000" stroke="none" 
	d="
M159.282166,197.402435 
	C158.371399,202.132172 157.827423,206.513138 156.816360,210.783524 
	C156.594055,211.722473 154.773651,212.743500 153.582184,212.897156 
	C151.064941,213.221771 148.453262,212.773758 145.922409,213.041122 
	C137.706497,213.909119 136.557449,210.630524 138.721527,201.970947 
	C140.273346,195.761383 143.675888,194.008865 150.075821,194.000870 
	C152.569199,193.997757 155.063568,194.049225 157.555695,193.994553 
	C159.937973,193.942291 160.559921,194.910049 159.282166,197.402435 
M148.037903,208.455795 
	C148.496307,208.305588 149.203125,208.292252 149.373322,207.983292 
	C150.602600,205.751785 151.834015,203.504578 152.773132,201.146225 
	C152.936188,200.736755 151.379700,199.085037 151.190399,199.177689 
	C148.926971,200.285538 146.124481,201.136673 144.746506,203.002731 
	C142.873947,205.538528 143.530685,208.237442 148.037903,208.455795 
z"/>
<path fill="#1B1B19" opacity="1.000000" stroke="none" 
	d="
M297.131165,194.591888 
	C312.354401,192.461533 312.477020,192.712494 309.520630,207.264771 
	C308.680603,211.399582 307.293579,213.742294 302.694885,212.753830 
	C301.915375,212.586273 301.002228,213.035324 300.224823,212.863892 
	C297.011658,212.155289 292.284241,212.328949 290.961517,210.311218 
	C288.417206,206.430008 289.953735,201.608948 292.926819,197.841125 
	C293.917755,196.585327 295.460876,195.765244 297.131165,194.591888 
M297.219360,201.849503 
	C296.054535,204.379425 294.787628,207.327896 298.623505,208.292007 
	C301.673828,209.058655 303.622498,206.866013 303.968506,203.789932 
	C304.119019,202.451599 303.659485,201.044662 303.477051,199.668884 
	C301.537842,200.193085 299.598602,200.717270 297.219360,201.849503 
z"/>
<path fill="#1B1B19" opacity="1.000000" stroke="none" 
	d="
M33.536072,212.906967 
	C29.706491,212.117691 28.057318,209.938919 28.042446,206.508514 
	C28.022844,201.986649 29.073565,197.837158 33.325653,195.484207 
	C34.980999,194.568176 37.076878,194.181259 39.002316,194.068222 
	C45.971745,193.659088 48.533836,195.297455 48.948410,200.067688 
	C49.523483,206.684692 45.768547,212.087814 39.907059,212.847931 
	C37.952320,213.101425 35.942020,212.926422 33.536072,212.906967 
M34.341125,203.873535 
	C35.388893,205.199554 36.436661,206.525558 37.484436,207.851578 
	C39.147617,206.475739 41.176094,205.339890 42.308918,203.615616 
	C42.820728,202.836594 41.550449,200.886734 41.088684,199.468079 
	C39.219322,200.111542 37.313370,200.670731 35.505501,201.455795 
	C35.034866,201.660156 34.870201,202.569168 34.341125,203.873535 
z"/>
<path fill="#00BEB0" opacity="1.000000" stroke="none" 
	d="
M181.328644,195.866058 
	C181.060593,201.154068 180.880020,206.232422 179.656616,211.045685 
	C179.331711,212.323975 175.803894,212.788177 173.087708,213.894592 
	C173.895737,209.472931 174.603195,206.354599 174.976517,203.196762 
	C175.130814,201.891525 174.568710,200.501602 174.332428,199.150192 
	C172.534042,199.891953 170.125549,200.161087 169.091980,201.495316 
	C167.804672,203.157089 167.150543,205.688522 167.110870,207.860626 
	C167.021606,212.748215 164.682709,213.811615 160.105820,212.574524 
	C161.094131,207.046341 162.018936,201.516968 163.138138,196.027222 
	C163.292160,195.271774 164.408981,194.154587 165.083252,194.152313 
	C170.042313,194.135529 175.003128,194.338165 179.959930,194.551895 
	C180.328888,194.567825 180.670975,195.207443 181.328644,195.866058 
z"/>
<path fill="#1B1B19" opacity="1.000000" stroke="none" 
	d="
M327.976776,198.023727 
	C331.408752,194.642242 335.528809,193.532516 340.268799,194.033234 
	C344.404205,194.470078 345.990845,196.795837 345.951416,200.713669 
	C345.910370,204.790283 343.150635,204.968689 340.134613,205.016525 
	C337.769562,205.054031 335.407532,205.284164 333.044159,205.428726 
	C333.024200,206.066483 333.004242,206.704239 332.984283,207.341995 
	C336.146332,207.594543 339.308380,207.847092 342.872437,208.131744 
	C343.318695,211.050156 342.173492,212.670105 338.782959,212.986694 
	C331.724365,213.645782 327.215973,211.959198 326.605194,207.438202 
	C326.227753,204.644226 327.392639,201.641876 327.932678,198.366394 
	C328.000183,197.999710 327.976776,198.023727 327.976776,198.023727 
M340.312164,200.621933 
	C337.450897,197.394592 336.764496,197.433838 333.253174,202.014938 
	C336.078217,201.678772 338.042999,201.444962 340.312164,200.621933 
z"/>
<path fill="#1B1B19" opacity="1.000000" stroke="none" 
	d="
M451.487122,203.426483 
	C447.210724,204.455307 443.125946,205.111816 439.041199,205.768311 
	C439.021149,206.303055 439.001099,206.837814 438.981049,207.372559 
	C442.317047,207.616714 445.653046,207.860886 448.977173,208.104172 
	C448.395508,212.924271 446.674744,213.771255 439.046753,212.950195 
	C434.285919,212.437744 432.378326,209.384949 433.087158,203.412613 
	C433.919647,196.398239 438.422058,193.211746 446.293640,194.065887 
	C451.297089,194.608826 452.306763,196.294067 451.487122,203.426483 
M440.692078,201.676849 
	C442.602966,201.586380 444.513855,201.495926 447.453522,201.356766 
	C443.189117,197.692123 442.175964,197.843552 440.692078,201.676849 
z"/>
<path fill="#1B1B19" opacity="1.000000" stroke="none" 
	d="
M256.251709,199.549667 
	C259.598145,194.350555 265.431915,192.491180 270.719482,194.522217 
	C274.170593,195.847839 274.053497,198.670303 273.938812,201.567825 
	C273.805695,204.930939 271.407501,204.916855 268.980743,205.008423 
	C266.510101,205.101654 264.042999,205.311157 261.579620,205.529327 
	C261.384064,205.546646 261.229706,206.028610 260.303040,207.449432 
	C264.213531,207.666412 267.457916,207.846436 271.173096,208.052582 
	C271.332275,210.979370 270.204834,212.629715 266.875641,212.984253 
	C256.347565,214.105453 252.915146,210.006500 256.251709,199.549667 
M267.500885,199.015518 
	C265.604431,199.268616 263.707977,199.521729 261.811523,199.774826 
	C261.934570,200.327866 262.057648,200.880890 262.180695,201.433914 
	C264.239044,201.216110 267.207245,204.405960 267.500885,199.015518 
z"/>
<path fill="#1B1B19" opacity="1.000000" stroke="none" 
	d="
M385.087769,203.417053 
	C387.486206,195.296677 390.454071,193.317032 398.210999,194.036621 
	C402.241791,194.410568 404.040436,196.339630 404.049652,200.502258 
	C404.059692,205.033157 401.243591,205.015015 398.053558,205.027542 
	C395.701691,205.036758 393.350830,205.310089 390.999542,205.465744 
	C390.989807,206.111252 390.980072,206.756744 390.970337,207.402252 
	C394.331543,207.633514 397.692749,207.864777 401.044312,208.095367 
	C400.304138,212.954971 399.096283,213.568039 391.466827,212.967194 
	C386.449066,212.572021 385.074310,210.613602 385.087769,203.417053 
M392.166840,201.296432 
	C394.214386,201.427963 396.261963,201.559494 398.309509,201.691025 
	C396.112732,197.520020 393.992645,197.974823 392.166840,201.296432 
z"/>
<path fill="#1B1B19" opacity="1.000000" stroke="none" 
	d="
M60.167698,208.896088 
	C61.442787,212.438644 59.360447,212.890701 56.952633,212.960968 
	C54.223034,213.040634 51.242332,213.121063 50.902676,209.448853 
	C50.502281,205.120026 49.409344,200.385452 50.688099,196.510361 
	C51.842449,193.012253 54.184196,188.555542 58.665585,188.445877 
	C60.312641,190.831848 62.089325,192.562302 62.709171,194.638199 
	C63.049324,195.777390 61.819832,198.092606 60.638950,198.850372 
	C56.554314,201.471420 56.107491,205.500595 60.167698,208.896088 
z"/>
<path fill="#1B1B19" opacity="1.000000" stroke="none" 
	d="
M453.840240,208.566650 
	C453.952942,207.841248 453.972290,207.505096 454.050903,207.183441 
	C455.031006,203.173309 454.869904,198.044205 457.354309,195.495972 
	C459.511536,193.283310 464.665283,193.992096 469.500366,194.291443 
	C468.509705,195.612762 467.750427,197.747864 466.486237,198.107391 
	C462.175629,199.333221 460.876923,202.336700 460.410980,206.239029 
	C460.234741,207.714645 460.175171,209.458801 459.349457,210.531830 
	C458.495941,211.640930 456.776398,212.083557 455.435730,212.817749 
	C454.881958,211.532715 454.328186,210.247665 453.840240,208.566650 
z"/>
<path fill="#1B1B19" opacity="1.000000" stroke="none" 
	d="
M328.011993,197.987778 
	C322.825958,198.266724 319.706970,200.674866 319.413940,206.180511 
	C319.336029,207.645096 319.234009,209.456558 318.376434,210.440750 
	C317.372131,211.593323 315.530151,212.015991 314.051544,212.755280 
	C313.617371,211.534363 313.124756,210.329590 312.780792,209.083786 
	C312.660553,208.648376 312.881653,208.106369 312.989075,207.622421 
	C313.883301,203.594635 313.590454,198.410141 316.038513,195.881668 
	C318.306152,193.539581 323.508179,194.038635 327.793488,193.214340 
	C327.873016,194.818909 327.935333,196.076752 327.987244,197.679169 
	C327.976776,198.023727 328.000183,197.999710 328.011993,197.987778 
z"/>
<path fill="#1B1B19" opacity="1.000000" stroke="none" 
	d="
M207.940552,210.239136 
	C208.389206,211.066559 208.907455,212.060349 208.611511,212.480087 
	C207.307175,214.330017 205.768127,216.014465 204.314117,217.758881 
	C203.710297,216.977600 202.492599,216.086273 202.609482,215.434158 
	C203.101303,212.690414 203.723969,209.757492 207.940552,210.239136 
z"/>
<path fill="#1A1A18" opacity="1.000000" stroke="none" 
	d="
M468.635040,208.618073 
	C470.011108,209.118103 471.084991,209.794083 472.158905,210.470062 
	C471.068665,211.212021 469.978424,211.953964 468.888153,212.695892 
	C468.703064,211.395264 468.517975,210.094635 468.635040,208.618073 
z"/>
<path fill="#1A1A18" opacity="1.000000" stroke="none" 
	d="
M478.564789,211.789032 
	C477.038208,211.758224 475.713348,211.449020 474.388519,211.139801 
	C475.265533,210.159973 476.142578,209.180145 477.019592,208.200302 
	C477.601929,209.303741 478.184235,210.407181 478.564789,211.789032 
z"/>
<path fill="#1A1A18" opacity="1.000000" stroke="none" 
	d="
M481.864441,210.433289 
	C483.405151,209.758972 484.854218,209.411224 486.303284,209.063461 
	C486.101013,210.103775 485.898743,211.144089 485.696472,212.184402 
	C484.388580,211.709549 483.080719,211.234695 481.864441,210.433289 
z"/>
</svg>