<svg xmlns="http://www.w3.org/2000/svg" width="142.026" height="64.071" viewBox="0 0 142.026 64.071">
  <g id="Grupo_64550" data-name="Grupo 64550" transform="translate(1891.064 15533.682)">
    <text id="Not_a_bank_we_are_better..." data-name="Not a bank, we are better..." transform="translate(-1891.064 -15473.61)" fill="#1b1b19" font-size="11.3" font-family="Kanit-MediumItalic, Kanit" font-weight="500" font-style="italic"><tspan x="0" y="0">Not a </tspan><tspan y="0" fill="#00beb0">bank</tspan><tspan y="0">, we are better...</tspan></text>
    <g id="Grupo_64462" data-name="Grupo 64462" transform="translate(-1890.583 -15533.682)">
      <path id="Trazado_13637" data-name="Trazado 13637" d="M56.224,11.191a17.981,17.981,0,0,0-12.134,4.157q-5.543,4.734-6.452,13.494-.8,7.673,2.621,12.343,3.924,5.308,12.3,5.307A18.128,18.128,0,0,0,64.689,42.4q5.542-4.732,6.458-13.557.8-7.674-2.627-12.278-3.919-5.373-12.3-5.372m6.162,17.651a13.517,13.517,0,0,1-3,7.642A7.756,7.756,0,0,1,53.3,39.392,6.249,6.249,0,0,1,48.057,36.9q-2.126-2.941-1.594-8.058A13.663,13.663,0,0,1,49.43,21.2a7.666,7.666,0,0,1,6.058-2.909,6.181,6.181,0,0,1,5.234,2.557q2.189,2.943,1.664,7.994m78.732,7.037,1.48-14.264q.537-5.179-2.2-7.738-3.047-2.685-10.593-2.686-13.361,0-15.566,11.156a.462.462,0,0,0,.455.548h7.532a.454.454,0,0,0,.436-.345,5.478,5.478,0,0,1,1.923-3.268,8.384,8.384,0,0,1,4.675-.991q5.051,0,4.764,3.389l-.188,2.43-7.039,1.279q-6.58,1.152-8.872,2.3a10.685,10.685,0,0,0-6.058,9.08q-.444,4.286,1.733,6.715a9.54,9.54,0,0,0,7.2,2.989l-.032.016h21.148a.162.162,0,0,0,.161-.145l.058-.558h0l.039-.373a3.069,3.069,0,0,0-.867-2.5,2.756,2.756,0,0,1-.674-2.368Zm-8.158-3.968q-.969,7.482-7.811,7.482-4.733,0-4.354-3.645a4.456,4.456,0,0,1,1.591-3.005,10.271,10.271,0,0,1,4.284-1.855l6.612-1.471Zm-37.3-20.72a11.786,11.786,0,0,0-9.744,4.541L87.492.5a.456.456,0,0,0-.453-.5H79.131a.456.456,0,0,0-.454.409L74.368,41.948l-.346,3.337a.456.456,0,0,0,.453.5h7.908a.457.457,0,0,0,.454-.409l.349-3.365q2.605,4.478,8.808,4.477a14.15,14.15,0,0,0,10.235-4.348q5.058-4.988,5.921-13.3.756-7.291-2.257-12.151a11.233,11.233,0,0,0-10.237-5.5m3.662,17.715a13.617,13.617,0,0,1-2.787,7.45,7.116,7.116,0,0,1-5.693,2.781,5.644,5.644,0,0,1-5.151-2.749q-1.7-2.749-1.206-7.482a13.87,13.87,0,0,1,2.8-7.579,7.115,7.115,0,0,1,5.693-2.781,5.618,5.618,0,0,1,5.112,2.814q1.721,2.814,1.231,7.546M23.61,11.191H2.841a.24.24,0,0,0-.239.215l-.051.489h0l-.04.383,0,.037A2.9,2.9,0,0,0,2.8,13.877a.9.9,0,0,0,.616.478,33.688,33.688,0,0,1,6.6,2.285,34.08,34.08,0,0,1,3.961,2.183,3.168,3.168,0,0,0,2.77.352,8.877,8.877,0,0,1,3.019-.5,8.68,8.68,0,0,1,1.325.095,4.586,4.586,0,0,1,2.446,1.068,4,4,0,0,1,1.161,2.06,8.357,8.357,0,0,1,.131,2.852L22.7,45.285a.456.456,0,0,0,.453.5h7.845a.456.456,0,0,0,.453-.409l2.327-22.421q.543-5.243-1.7-8.313-2.648-3.454-8.467-3.454" transform="translate(-1.141)" fill="#1b1b19"/>
      <path id="Trazado_13638" data-name="Trazado 13638" d="M4.6,22.354a.717.717,0,0,0-1.036.6v.013L.656,51.2a.455.455,0,0,0,.453.5H9.018a.455.455,0,0,0,.453-.409l2.081-20.055a8.213,8.213,0,0,1,.349-1.688,2.7,2.7,0,0,0-.843-2.86A33.024,33.024,0,0,0,4.6,22.354" transform="translate(-0.654 -5.911)" fill="#00beb0"/>
    </g>
  </g>
</svg>
