<svg xmlns="http://www.w3.org/2000/svg" width="19.968" height="19.967" viewBox="0 0 19.968 19.967">
  <path id="bank_1_" data-name="bank (1)" d="M19.966,19.134a.832.832,0,0,1-.832.832H.832a.832.832,0,1,1,0-1.664h18.3A.832.832,0,0,1,19.966,19.134ZM.242,7.114A2.032,2.032,0,0,1,.369,4.98,3.923,3.923,0,0,1,1.757,3.732L8,.484a4.3,4.3,0,0,1,3.972,0l6.239,3.25A3.923,3.923,0,0,1,19.6,4.982a2.032,2.032,0,0,1,.127,2.135,2.257,2.257,0,0,1-2.01,1.2H17.47v6.655H18.3a.832.832,0,1,1,0,1.664H1.664a.832.832,0,1,1,0-1.664H2.5V8.319H2.253a2.257,2.257,0,0,1-2.011-1.2Zm3.917,7.86h2.5V8.319h-2.5Zm4.16-6.655v6.655h3.328V8.319Zm7.487,0h-2.5v6.655h2.5ZM1.716,6.343a.6.6,0,0,0,.537.312h15.46a.6.6,0,0,0,.537-.312.376.376,0,0,0-.02-.416,2.246,2.246,0,0,0-.789-.719L11.2,1.958a2.642,2.642,0,0,0-2.434,0L2.527,5.208a2.256,2.256,0,0,0-.789.72.376.376,0,0,0-.022.415Z" transform="translate(0.002 0.002)" fill="#0f655d"/>
</svg>
