<svg width="44" height="44" viewBox="0 0 44 44" fill="none" xmlns="http://www.w3.org/2000/svg">
<rect width="44" height="44" rx="8" fill="#ECEFF1"/>
<path d="M11.0527 27.4878C11.5206 28.4546 12.242 29.1847 13.1973 29.6583C12.476 29.6583 11.7741 29.6583 11.0527 29.6583C11.0527 28.9282 11.0527 28.1981 11.0527 27.4878Z" fill="white"/>
<path d="M33.532 14.3268C33.376 14.7214 33.0836 14.8398 32.6742 14.8398C25.753 14.8398 18.8318 14.8398 11.9106 14.8398C11.5012 14.8398 11.2087 14.7214 11.0527 14.3268C11.0527 14.2282 11.0527 14.1098 11.0527 14.0111C11.1697 13.8533 11.2672 13.6559 11.4232 13.5573C14.991 11.3473 18.5588 9.11766 22.1072 6.90771C22.2241 6.90771 22.3411 6.90771 22.4581 6.90771C22.5751 6.96691 22.6921 7.04584 22.7895 7.10503C26.2014 9.23605 29.6133 11.3671 33.0446 13.4784C33.2591 13.6165 33.4345 13.7546 33.5125 14.0111C33.532 14.1098 33.532 14.2282 33.532 14.3268ZM22.3021 12.1563C22.4386 12.1563 22.5946 12.1563 22.731 12.1563C23.1015 12.1366 23.3744 11.8801 23.3939 11.5249C23.4134 11.1698 23.16 10.854 22.7895 10.8343C22.4581 10.8146 22.1267 10.8146 21.7952 10.8343C21.4248 10.854 21.1713 11.1698 21.1908 11.5447C21.2103 11.8998 21.4833 12.1563 21.8537 12.1563C22.0097 12.1563 22.1462 12.1563 22.3021 12.1563Z" fill="#979797"/>
<path d="M11.0527 27.0339C11.2282 26.659 11.5206 26.5406 11.93 26.5406C18.8317 26.5406 25.7334 26.5406 32.6352 26.5406C33.0446 26.5406 33.337 26.659 33.5125 27.0339C33.5125 27.7443 33.5125 28.4546 33.5125 29.165C33.415 29.382 33.2395 29.5399 33.0251 29.6583C25.8504 29.6583 18.6758 29.6583 11.5206 29.6583C11.3062 29.5596 11.1502 29.382 11.0332 29.165C11.0527 28.4546 11.0527 27.7443 11.0527 27.0339Z" fill="#979797"/>
<path d="M31.9528 16.1619C31.9528 16.4381 31.9722 16.7144 31.9528 16.9709C31.9138 17.2274 31.6798 17.4444 31.4069 17.4839C31.3289 17.4839 31.2704 17.4839 31.1924 17.4839C25.2655 17.4839 19.3386 17.4839 13.4117 17.4839C13.2558 17.4839 13.0803 17.4642 12.9633 17.3852C12.8268 17.2866 12.6904 17.109 12.6514 16.9511C12.5929 16.6946 12.6319 16.4381 12.6319 16.1619C19.0657 16.1619 25.4995 16.1619 31.9528 16.1619Z" fill="#979797"/>
<path d="M18.5 18.8257C19.3773 18.8257 20.2352 18.8257 21.1125 18.8257C21.1125 20.9567 21.1125 23.068 21.1125 25.1793C20.2352 25.1793 19.3773 25.1793 18.5 25.1793C18.5 23.0877 18.5 20.9764 18.5 18.8257Z" fill="#979797"/>
<path d="M23.4912 18.8257C24.3685 18.8257 25.2264 18.8257 26.1037 18.8257C26.1037 20.9567 26.1037 23.068 26.1037 25.1793C25.2264 25.1793 24.3685 25.1793 23.4912 25.1793C23.4912 23.0877 23.4912 20.9764 23.4912 18.8257Z" fill="#979797"/>
<path d="M16.1213 25.199C15.244 25.199 14.3862 25.199 13.5283 25.199C13.5283 23.068 13.5283 20.9567 13.5283 18.8257C14.3862 18.8257 15.2635 18.8257 16.1213 18.8257C16.1213 20.9567 16.1213 23.068 16.1213 25.199Z" fill="#979797"/>
<path d="M28.4629 25.1989C28.4629 23.0679 28.4629 20.9764 28.4629 18.8453C29.3402 18.8453 30.1981 18.8453 31.0754 18.8453C31.0754 20.9566 31.0754 23.0679 31.0754 25.1989C30.1981 25.1989 29.3402 25.1989 28.4629 25.1989Z" fill="#979797"/>
</svg>
