<svg width="17" height="20" viewBox="0 0 17 20" fill="none" xmlns="http://www.w3.org/2000/svg">
  <path fill-rule="evenodd" clip-rule="evenodd" d="M7.65497 0.0364862C5.18685 0.311941 3.13256 2.19222 2.60787 4.65604C2.54394 4.95631 2.51745 5.25103 2.50018 5.85524L2.47724 6.65632L2.22562 6.68407C1.24869 6.7918 0.423184 7.45705 0.102282 8.39526L0.0153741 8.64926L0.00482319 13.2314C-0.00693906 18.3326 -0.0196391 18.0641 0.26031 18.6335C0.471288 19.0626 0.920012 19.5057 1.36354 19.7228C1.96392 20.0167 1.54118 19.9998 8.31928 19.9998C15.0974 19.9998 14.6746 20.0167 15.275 19.7228C15.7186 19.5057 16.1673 19.0626 16.3783 18.6335C16.6582 18.0641 16.6455 18.3326 16.6337 13.2314L16.6232 8.64926L16.5363 8.39526C16.2154 7.45705 15.3899 6.7918 14.4129 6.68407L14.1613 6.65632L14.1384 5.85524C14.1211 5.25103 14.0946 4.95631 14.0307 4.65604C13.4003 1.69606 10.6488 -0.297624 7.65497 0.0364862ZM9.14053 1.75225C10.6611 2.06213 11.9059 3.2135 12.3248 4.69765C12.4372 5.09581 12.5102 5.79322 12.4929 6.30463L12.481 6.65632H8.31928H4.15756L4.14568 6.30463C4.12841 5.79322 4.20136 5.09581 4.31375 4.69765C4.89987 2.62137 7.02923 1.32201 9.14053 1.75225ZM14.3417 8.36079C14.6346 8.42363 14.8979 8.69014 14.9593 8.98583C14.9906 9.13671 15.0001 10.4181 14.9926 13.4563L14.9819 17.7152L14.8843 17.8893C14.8305 17.985 14.7103 18.1169 14.6171 18.1824L14.4477 18.3013H8.31928H2.19088L2.02144 18.1824C1.92824 18.1169 1.80804 17.985 1.75431 17.8893L1.65662 17.7152L1.64599 13.4563C1.63845 10.4181 1.64798 9.13671 1.67928 8.98583C1.737 8.70788 2.00737 8.4216 2.26689 8.36368C2.52237 8.30667 14.0765 8.30393 14.3417 8.36079ZM7.98713 9.60712C6.57452 9.80161 5.59693 11.1584 5.87442 12.5392C6.03346 13.3306 6.50207 13.9397 7.24349 14.3187L7.47912 14.4391L7.49866 15.2826L7.5182 16.1261L7.63715 16.2954C7.97572 16.7772 8.66285 16.7772 9.00141 16.2954L9.12037 16.1261L9.1399 15.2826L9.15944 14.4391L9.39508 14.3187C9.93528 14.0425 10.3205 13.6576 10.5624 13.1523C11.1612 11.9015 10.6465 10.4437 9.39391 9.8428C8.93252 9.62142 8.45914 9.54214 7.98713 9.60712ZM8.56629 11.2898C8.76851 11.3459 9.00395 11.5675 9.08395 11.7769C9.18027 12.0292 9.14592 12.338 8.99805 12.5486C8.5575 13.1761 7.56959 12.923 7.50683 12.1666C7.45642 11.5588 7.97861 11.1266 8.56629 11.2898Z" fill="#000000"/>
</svg>