<svg xmlns="http://www.w3.org/2000/svg" width="69.943" height="74.238" viewBox="0 0 69.943 74.238">
  <g id="blockchain" transform="translate(-0.5 -0.001)">
    <path id="Trazado_13708" data-name="Trazado 13708" d="M70.443,18.128a6.085,6.085,0,0,0-10.481-4.213L36.2.195a1.45,1.45,0,0,0-1.449,0L10.981,13.916A6.087,6.087,0,1,0,5.14,24.042V51.474a1.451,1.451,0,0,0,.725,1.256L29.623,66.447a6.09,6.09,0,1,0,11.693,0L65.078,52.73a1.45,1.45,0,0,0,.725-1.256V24.042a6.1,6.1,0,0,0,4.64-5.914Zm-67.043,0a3.19,3.19,0,1,1,3.19,3.19,3.193,3.193,0,0,1-3.19-3.19ZM35.47,71.339a3.19,3.19,0,1,1,3.19-3.19A3.193,3.193,0,0,1,35.47,71.339Zm4.394-7.4a6.075,6.075,0,0,0-8.787,0L8.04,50.637v-26.6a6.086,6.086,0,0,0,4.4-7.618l23.036-13.3,23.036,13.3a6.086,6.086,0,0,0,4.4,7.618v26.6ZM64.353,21.318a3.19,3.19,0,1,1,3.19-3.19A3.194,3.194,0,0,1,64.353,21.318Zm0,0" fill="#e4cea1"/>
    <path id="Trazado_13709" data-name="Trazado 13709" d="M140.142,88.827,121,77.777a1.45,1.45,0,0,0-1.449,0l-19.14,11.05a1.451,1.451,0,0,0-.725,1.256v22.1a1.45,1.45,0,0,0,.725,1.256l19.14,11.05a1.449,1.449,0,0,0,1.449,0l19.14-11.05a1.45,1.45,0,0,0,.725-1.256v-22.1A1.451,1.451,0,0,0,140.142,88.827Zm-19.865-8.12,16.24,9.376-16.24,9.376-16.239-9.376Zm1.45,40.015v-6.539a1.45,1.45,0,1,0-2.9,0v6.539l-16.24-9.376V92.594l16.965,9.795a1.449,1.449,0,0,0,1.449,0l16.965-9.795v18.752Zm0,0" transform="translate(-84.806 -66.333)" fill="#e4cea1"/>
    <path id="Trazado_13710" data-name="Trazado 13710" d="M233.116,275a1.45,1.45,0,1,0,1.025.425A1.463,1.463,0,0,0,233.116,275Zm0,0" transform="translate(-197.646 -235.125)" fill="#e4cea1"/>
  </g>
</svg>
