<svg width="22" height="16" viewBox="0 0 22 16" fill="none" xmlns="http://www.w3.org/2000/svg">
<path d="M8.78111 9.23132C7.63111 9.23132 6.71111 9.23132 5.56111 9.23132C4.41111 9.23132 3.49111 9.23132 2.34111 9.34561C1.88111 9.34561 1.76611 9.4599 1.76611 9.91704C1.76611 10.4885 1.76611 11.0599 1.76611 11.6313C1.76611 12.0885 1.88111 12.2028 2.34111 12.2028C4.41111 12.2028 6.59611 12.2028 8.78111 12.2028C9.24111 12.2028 9.35611 12.0885 9.35611 11.6313C9.35611 11.0599 9.35611 10.4885 9.35611 9.91704C9.35611 9.34561 9.24111 9.23132 8.78111 9.23132Z" fill="#0F655D"/>
<path d="M20.971 9.45991C20.971 7.1742 20.971 4.88848 20.971 2.60277C20.856 2.3742 20.856 2.03134 20.856 1.80277C20.511 1.23134 19.936 0.774198 19.246 0.659912H19.131C13.726 0.659912 8.20596 0.659912 2.80096 0.659912C2.45596 0.659912 2.22596 0.774198 1.88096 1.00277C1.19096 1.45991 0.730957 2.03134 0.730957 2.83134C0.730957 6.25991 0.730957 9.45991 0.730957 12.8885C0.730957 14.1456 1.76596 15.1742 3.03096 15.1742C4.75596 15.1742 6.71096 15.1742 8.55096 15.1742C11.081 15.1742 13.611 15.1742 16.141 15.1742C16.601 15.4028 17.176 15.5171 17.866 15.5171C19.936 15.5171 21.661 13.8028 21.661 11.7456C21.661 10.8313 21.431 10.1456 20.971 9.45991ZM1.65096 2.83134C1.76596 2.14563 2.22596 1.68848 2.91596 1.68848C6.94096 1.68848 10.966 1.68848 14.991 1.68848C16.141 1.68848 17.291 1.68848 18.441 1.68848C19.361 1.68848 19.936 2.25991 19.936 3.05991C19.936 3.1742 19.936 3.28848 19.936 3.51705C13.841 3.51705 7.74596 3.51705 1.65096 3.63134C1.65096 3.40277 1.65096 3.05991 1.65096 2.83134ZM3.03096 14.1456C2.11096 14.1456 1.53596 13.5742 1.53596 12.7742C1.53596 10.8313 1.53596 8.7742 1.53596 6.83134C1.53596 6.71705 1.53596 6.71705 1.53596 6.60277C7.63096 6.60277 13.726 6.60277 19.821 6.60277C19.821 6.71705 19.821 6.71705 19.821 6.83134C19.821 7.40277 19.821 7.9742 19.821 8.54563C19.361 8.08848 18.671 7.85991 17.866 7.85991C15.796 7.85991 14.071 9.5742 14.071 11.6313C14.071 12.5456 14.416 13.3456 14.991 14.0313C10.966 14.1456 6.94096 14.1456 3.03096 14.1456ZM17.751 14.1456C17.636 14.1456 17.521 14.0313 17.406 13.9171C17.406 13.8028 17.291 13.8028 17.176 13.8028C16.831 13.6885 16.601 13.3456 16.486 13.1171C16.371 12.8885 16.486 12.5456 16.716 12.4313C16.946 12.3171 17.291 12.4313 17.406 12.6599C17.406 12.7742 17.521 12.7742 17.636 12.8885C17.751 13.0028 17.981 12.8885 17.981 12.6599C17.981 12.5456 17.866 12.3171 17.751 12.3171C17.636 12.3171 17.521 12.3171 17.406 12.3171C16.831 12.2028 16.486 11.7456 16.371 11.1742C16.256 10.6028 16.601 10.1456 17.061 9.80277C17.176 9.80277 17.176 9.68848 17.291 9.5742C17.521 9.23134 17.981 9.23134 18.211 9.5742C18.211 9.68848 18.326 9.68848 18.441 9.80277C18.786 10.0313 19.016 10.2599 19.131 10.7171C19.131 11.0599 19.016 11.1742 18.671 11.2885C18.441 11.4028 18.211 11.2885 18.096 11.0599C18.096 11.0599 18.096 10.9456 17.981 10.9456C17.866 10.8313 17.751 10.7171 17.636 10.8313C17.521 10.8313 17.406 10.9456 17.406 11.0599C17.406 11.1742 17.521 11.2885 17.636 11.2885C17.751 11.2885 17.866 11.2885 17.981 11.2885C18.556 11.4028 19.016 11.8599 19.131 12.4313C19.246 13.0028 18.901 13.5742 18.441 13.8028C18.326 13.8028 18.326 13.9171 18.211 14.0313C18.096 14.1456 17.981 14.2599 17.866 14.2599C17.866 14.1456 17.751 14.1456 17.751 14.1456Z" fill="#0F655D"/>
</svg>
