<svg xmlns="http://www.w3.org/2000/svg" width="59.506" height="68.047" viewBox="0 0 59.506 68.047">
  <g id="cash-back" transform="translate(-32.134 0)">
    <path id="Trazado_13704" data-name="Trazado 13704" d="M145.474,128.533a16.941,16.941,0,1,0,16.941,16.941A16.96,16.96,0,0,0,145.474,128.533Zm0,29.895a12.954,12.954,0,1,1,12.954-12.954A12.969,12.969,0,0,1,145.474,158.428Z" transform="translate(-83.587 -111.45)" fill="#e4cea1"/>
    <path id="Trazado_13705" data-name="Trazado 13705" d="M215.666,4.277l.874-.874A1.994,1.994,0,0,0,213.721.584L209.45,4.854a1.993,1.993,0,0,0,0,2.819l4.271,4.271a1.994,1.994,0,0,0,2.819-2.819l-.861-.86A25.8,25.8,0,0,1,240.9,34.023a1.994,1.994,0,1,0,3.987,0A29.786,29.786,0,0,0,215.666,4.277Z" transform="translate(-153.244)" fill="#e4cea1"/>
    <path id="Trazado_13706" data-name="Trazado 13706" d="M216.2,185.275h-2.093a1.256,1.256,0,0,1-1.252-1.258,1.16,1.16,0,0,1,1.156-1.16h3.256a1.994,1.994,0,1,0,0-3.987h-.142v-.142a1.994,1.994,0,1,0-3.987,0v.217a5.154,5.154,0,0,0-4.271,5.074,5.247,5.247,0,0,0,5.239,5.244H216.2a1.209,1.209,0,1,1,0,2.419h-3.2a1.994,1.994,0,1,0,0,3.987h.142v.142a1.994,1.994,0,1,0,3.987,0v-.226a5.2,5.2,0,0,0-.926-10.309Z" transform="translate(-153.243 -153.245)" fill="#e4cea1"/>
    <path id="Trazado_13707" data-name="Trazado 13707" d="M63.3,265.073a1.994,1.994,0,1,0-2.819,2.819l.861.86a25.8,25.8,0,0,1-25.217-25.759,1.994,1.994,0,0,0-3.987,0A29.786,29.786,0,0,0,61.351,272.74l-.874.874a1.993,1.993,0,1,0,2.819,2.819l4.271-4.271a1.993,1.993,0,0,0,0-2.819Z" transform="translate(0 -208.97)" fill="#e4cea1"/>
  </g>
</svg>
