<svg width="41" height="41" viewBox="0 0 41 41" fill="none" xmlns="http://www.w3.org/2000/svg">
    <rect width="41" height="41" rx="8" fill="#e4cea1"/>
    <path d="M7.3877 16.2246C7.3877 14.8308 7.3877 13.437 7.3877 12.0315C7.61703 11.1999 8.13305 10.6026 8.82107 10.1224C9.65816 9.54849 10.5755 9.16198 11.5273 8.85746C13.3391 8.28355 15.2082 7.97902 17.0888 7.82676C20.5403 7.54566 23.969 7.70964 27.3402 8.55293C28.7736 8.90431 30.1726 9.38452 31.3652 10.2981C32.0302 10.8134 32.5463 11.4342 32.5577 12.3361C32.5692 13.6127 32.5463 14.8894 32.5463 16.1777C32.5463 16.2597 32.6036 16.3768 32.6724 16.4354C32.8788 16.6111 33.1196 16.7634 33.3145 16.939C33.9452 17.5012 34.3122 18.1806 34.2892 19.0707C34.2663 20.1131 34.2892 21.1438 34.2778 22.1862C34.2778 22.3502 34.2778 22.5142 34.2434 22.6664C34.1172 23.3809 33.7044 23.8962 33.1769 24.3296C33.0737 24.4116 32.982 24.4819 33.0279 24.6575C33.0852 24.9152 33.1196 25.1846 33.1311 25.454C33.1425 26.4495 33.1081 27.4451 33.1425 28.4289C33.1884 29.4948 32.7068 30.2561 31.9156 30.8651C31.0326 31.5327 30.035 31.9544 28.9915 32.2823C26.6408 33.0202 24.2212 33.3365 21.7673 33.4184C18.4877 33.5239 15.2426 33.2662 12.0777 32.2823C11.0342 31.9544 10.0366 31.5327 9.15361 30.8651C8.36239 30.2678 7.88078 29.5182 7.92664 28.4524C7.96104 27.6442 7.92664 26.8478 7.93811 26.0396C7.93811 25.6765 7.91518 25.3017 7.97251 24.9503C8.07571 24.2242 8.52293 23.7088 9.05041 23.252C9.13068 23.1818 9.18801 23.0529 9.17654 22.9475C9.16508 22.6781 9.08481 22.397 9.08481 22.1276C9.08481 20.9213 9.09628 19.7149 9.10774 18.5085C9.10774 18.4382 9.06187 18.3328 9.00454 18.2977C8.25919 17.794 7.6285 17.1616 7.3877 16.2246ZM20.0358 8.86917C18.3157 8.88088 16.653 8.98629 15.0018 9.24397C13.4537 9.50164 11.9172 9.85301 10.4723 10.5206C9.87603 10.8017 9.31415 11.118 8.86694 11.6333C8.41972 12.1487 8.41972 12.6289 8.86694 13.1442C9.47469 13.8352 10.2659 14.1983 11.0915 14.5146C13.3735 15.393 15.7471 15.7092 18.1667 15.8498C20.5403 15.9786 22.8911 15.8732 25.2418 15.475C26.7096 15.229 28.1544 14.8777 29.519 14.2335C30.1382 13.9524 30.723 13.6127 31.1702 13.0622C31.5257 12.6171 31.5372 12.1369 31.1702 11.7036C30.9753 11.4693 30.7345 11.2585 30.4937 11.0828C29.5075 10.4035 28.3952 10.0287 27.26 9.72418C24.8634 9.0917 22.4324 8.89259 20.0358 8.86917ZM10.3118 18.977C10.2888 18.9887 10.2774 19.0121 10.2544 19.0239C10.3806 19.223 10.4838 19.4455 10.6443 19.6095C11.2406 20.2654 12.0318 20.6285 12.8345 20.9447C14.8871 21.7411 17.0429 22.0691 19.2216 22.2331C21.8017 22.4205 24.3703 22.3385 26.916 21.9168C28.3952 21.6709 29.8515 21.3195 31.2161 20.6753C31.8353 20.3942 32.4201 20.0545 32.8673 19.5158C33.2457 19.0473 33.2572 18.5554 32.8559 18.1103C32.6036 17.8409 32.3169 17.6066 32.0302 17.349C31.2505 18.2274 30.2873 18.7193 29.2552 19.1058C26.8472 20.0311 24.3359 20.3591 21.8017 20.4996C20.1046 20.5933 18.4075 20.5582 16.7104 20.3942C15.105 20.2302 13.5111 19.9843 11.963 19.5275C11.4126 19.3752 10.8622 19.1644 10.3118 18.977ZM31.9958 25.1143C31.8582 25.1729 31.7665 25.2197 31.6748 25.2549C31.5716 25.3017 31.4684 25.3486 31.3652 25.3954C29.2896 26.2504 27.1109 26.6369 24.9092 26.8478C23.0516 27.0235 21.2054 27.0469 19.3478 26.9063C17.6621 26.7892 15.9879 26.5784 14.3482 26.145C12.9721 25.7936 11.619 25.3369 10.4494 24.4936C10.2659 24.3647 10.0939 24.2125 9.8531 24.0134C9.70403 24.2008 9.55496 24.3764 9.41735 24.5521C9.06187 24.9972 9.03894 25.4306 9.37148 25.8756C9.47469 26.0162 9.60082 26.145 9.72696 26.2621C10.3118 26.7775 10.9998 27.1054 11.7107 27.3865C13.8321 28.1947 16.0453 28.5344 18.2813 28.6749C20.4027 28.8155 22.5126 28.7686 24.6226 28.5109C26.2853 28.3001 27.9251 27.9722 29.496 27.3631C30.207 27.082 30.895 26.7541 31.4798 26.227C31.7665 25.9459 32.0417 25.6297 31.9958 25.1143ZM22.2833 19.3401C23.0172 19.2581 23.7167 19.1878 24.4162 19.1058C24.4735 19.0941 24.5652 19.0121 24.5652 18.9653C24.5767 18.2391 24.5767 17.5012 24.5767 16.7634C23.7969 16.8453 23.0516 16.9156 22.2948 16.9976C22.2833 17.7706 22.2833 18.5319 22.2833 19.3401ZM15.9994 29.6353C15.9994 30.4318 15.9994 31.1814 15.9994 31.9661C16.7562 32.0481 17.5016 32.1184 18.2584 32.2003C18.2584 31.3922 18.2584 30.6309 18.2584 29.8579C17.4901 29.7876 16.7562 29.7173 15.9994 29.6353ZM25.1271 31.9661C25.1271 31.1697 25.1271 30.4083 25.1271 29.6353C24.3588 29.7173 23.6135 29.7876 22.8681 29.8696C22.8681 30.6543 22.8681 31.4156 22.8681 32.2121C23.6364 32.1301 24.3703 32.0481 25.1271 31.9661ZM19.4051 23.4277C18.6368 23.3457 17.8915 23.2755 17.1346 23.1935C17.1346 23.9665 17.1346 24.7278 17.1346 25.5243C17.8915 25.6062 18.6368 25.6765 19.4051 25.7585C19.4051 24.9738 19.4051 24.2125 19.4051 23.4277ZM11.9745 16.0606C11.9745 16.7868 11.9745 17.4895 11.9745 18.1923C11.9745 18.2508 12.0433 18.3445 12.1006 18.3562C12.8116 18.5436 13.5225 18.731 14.2679 18.9184C14.2679 18.1337 14.2679 17.4075 14.2679 16.6697C14.2679 16.6228 14.1876 16.5525 14.1417 16.5408C13.4308 16.3886 12.7198 16.2246 11.9745 16.0606ZM27.4434 25.3369C27.948 25.2197 28.4296 25.1143 28.9112 24.9855C29.175 24.9152 29.5419 24.9035 29.6795 24.7161C29.8171 24.5287 29.7254 24.1656 29.7254 23.8845C29.7254 23.4277 29.7254 22.9592 29.7254 22.479C28.9456 22.6547 28.2003 22.8304 27.4434 23.0061C27.4434 23.7791 27.4434 24.5287 27.4434 25.3369ZM14.8298 29.4596C14.0615 29.284 13.3161 29.1083 12.5593 28.9326C12.5593 29.6939 12.5593 30.4435 12.5593 31.2282C13.3047 31.4156 14.0615 31.5913 14.8298 31.7904C14.8298 30.9705 14.8298 30.2209 14.8298 29.4596ZM22.8337 25.8171C22.8337 25.0206 22.8337 24.2593 22.8337 23.498C22.0769 23.498 21.3315 23.498 20.5977 23.498C20.5977 24.2827 20.5977 25.044 20.5977 25.8171C21.343 25.8171 22.0769 25.8171 22.8337 25.8171ZM19.4395 29.9281C19.4395 30.7129 19.4395 31.4742 19.4395 32.2472C20.1963 32.2472 20.9417 32.2472 21.6756 32.2472C21.6756 31.4508 21.6756 30.6894 21.6756 29.9281C20.9302 29.9281 20.1963 29.9281 19.4395 29.9281ZM18.8547 19.3752C19.623 19.3752 20.3569 19.3752 21.1137 19.3752C21.1137 18.5905 21.1137 17.8292 21.1137 17.0562C20.3569 17.0562 19.6115 17.0562 18.8547 17.0562C18.8547 17.8409 18.8547 18.5905 18.8547 19.3752ZM17.6736 19.3401C17.6736 18.5319 17.6736 17.7589 17.6736 16.9976C16.9053 16.9156 16.1714 16.8453 15.4031 16.7634C15.4031 17.5012 15.4031 18.204 15.4146 18.9184C15.4146 18.9887 15.5178 19.1058 15.5866 19.1058C16.2746 19.1878 16.9626 19.2581 17.6736 19.3401ZM24.0148 25.7702C24.7258 25.6999 25.4138 25.618 26.1018 25.5477C26.2624 25.536 26.2968 25.454 26.2968 25.3017C26.2853 24.9152 26.2968 24.5287 26.2968 24.1422C26.2968 23.8377 26.2968 23.5214 26.2968 23.1935C25.517 23.2755 24.7716 23.3457 24.0148 23.4277C24.0148 24.2008 24.0148 24.9621 24.0148 25.7702ZM15.965 23.0178C15.1967 22.8421 14.4628 22.6781 13.6945 22.4907C13.6945 22.9827 13.6945 23.4512 13.6945 23.9197C13.6945 24.189 13.6143 24.5404 13.7404 24.7278C13.878 24.9035 14.222 24.9152 14.4858 24.9855C14.9674 25.1026 15.449 25.2197 15.9535 25.3369C15.965 24.5404 15.965 23.7791 15.965 23.0178ZM28.5672 28.9326C27.8448 29.0966 27.1338 29.2488 26.4229 29.4245C26.3656 29.4362 26.2967 29.5533 26.2853 29.6236C26.2738 30.0453 26.2738 30.4669 26.2738 30.8886C26.2738 31.1697 26.2738 31.4508 26.2738 31.7904C27.065 31.5913 27.8104 31.4156 28.5557 31.2282C28.5672 30.4435 28.5672 29.7056 28.5672 28.9326ZM28.0053 16.0606C27.2714 16.2246 26.5605 16.3768 25.8495 16.5525C25.7922 16.5642 25.7234 16.6931 25.7234 16.7634C25.7119 17.0913 25.7119 17.4192 25.7119 17.7589C25.7119 18.1337 25.7119 18.5085 25.7119 18.9302C26.4573 18.7428 27.1682 18.5671 27.8677 18.368C27.9251 18.3562 27.9939 18.2508 27.9939 18.1806C28.0053 17.4778 28.0053 16.7868 28.0053 16.0606ZM29.152 17.9112C29.8056 17.6184 30.4134 17.3373 30.895 16.8571C31.1014 16.6579 31.3422 16.3886 31.3881 16.1192C31.4684 15.5804 31.411 15.0299 31.411 14.5497C30.7115 14.9011 29.9891 15.2524 29.2667 15.6272C29.2208 15.6507 29.1635 15.7444 29.1635 15.8029C29.152 16.494 29.152 17.1733 29.152 17.9112ZM12.5478 24.3413C12.5478 23.6151 12.5478 22.9241 12.5364 22.2331C12.5364 22.1628 12.4446 22.0574 12.3644 22.0222C11.9401 21.7997 11.4929 21.6123 11.0686 21.3898C10.8049 21.2492 10.5526 21.0618 10.2544 20.8744C10.2544 21.3078 10.2659 21.706 10.2544 22.1042C10.243 22.5493 10.4035 22.9007 10.7131 23.2052C11.2177 23.7205 11.8484 24.0368 12.5478 24.3413ZM9.13068 27.3631C9.13068 27.8785 9.10774 28.4055 9.14214 28.9209C9.15361 29.0966 9.26828 29.2957 9.39442 29.4362C9.91043 30.0804 10.6329 30.4318 11.4011 30.7597C11.4011 30.1975 11.4011 29.6705 11.4011 29.1434C11.4011 28.5109 11.4011 28.5109 10.8393 28.2767C10.7475 28.2415 10.6443 28.1947 10.5526 28.1361C10.0824 27.9019 9.61229 27.6325 9.13068 27.3631ZM29.7254 30.7714C30.3675 30.502 30.9294 30.1858 31.434 29.7759C32.2596 29.1083 31.9385 28.1947 32.0073 27.41C31.2734 27.773 30.551 28.1244 29.8286 28.4875C29.7712 28.5109 29.7254 28.6046 29.7254 28.6632C29.7254 29.3542 29.7254 30.0453 29.7254 30.7714ZM33.1425 20.9798C32.4316 21.3312 31.7321 21.6826 31.0326 22.0339C30.9523 22.0691 30.8835 22.1979 30.8835 22.2916C30.8721 22.8772 30.8721 23.4512 30.8721 24.0368C30.8721 24.1305 30.8835 24.2242 30.895 24.4233C31.4913 24.0485 32.0302 23.7323 32.5463 23.3692C32.8444 23.1583 33.1081 22.8538 33.1425 22.4556C33.1769 21.9403 33.1425 21.4249 33.1425 20.9798ZM8.54586 14.538C8.54586 14.9831 8.53439 15.475 8.55733 15.9669C8.55733 16.1075 8.61466 16.2714 8.69493 16.3886C9.19948 17.1733 10.0022 17.5247 10.8278 17.9112C10.8278 17.1733 10.8278 16.4823 10.8163 15.7912C10.8163 15.7209 10.7475 15.6272 10.6787 15.6038C9.97923 15.2407 9.26828 14.8894 8.54586 14.538Z"
          fill="white"/>
</svg>
