<?xml version="1.0" standalone="no"?>
<!DOCTYPE svg PUBLIC "-//W3C//DTD SVG 20010904//EN"
 "http://www.w3.org/TR/2001/REC-SVG-20010904/DTD/svg10.dtd">
<svg version="1.0" xmlns="http://www.w3.org/2000/svg"
 width="75" height="67" viewBox="0 0 512.000000 512.000000"
 preserveAspectRatio="xMidYMid meet">

<g transform="translate(0.000000,512.000000) scale(0.100000,-0.100000)"
fill="#e4b574" stroke="none">
<path d="M705 4854 c-229 -47 -430 -227 -512 -459 l-28 -80 0 -1675 0 -1675
28 -90 c94 -298 315 -515 612 -598 l80 -22 1720 -3 c1941 -3 1805 -8 1975 75
165 81 292 232 356 423 18 52 19 123 22 1339 2 851 -1 1303 -8 1339 -31 169
-164 316 -335 373 -33 11 -396 15 -1950 19 l-1910 5 -57 27 c-310 145 -277
586 51 682 49 14 201 16 1403 16 1483 0 1391 -4 1442 62 60 79 35 191 -54 236
l-44 22 -1361 -1 c-1143 -1 -1371 -3 -1430 -15z m-143 -1289 c144 -69 16 -65
2081 -65 2081 0 1909 6 1965 -68 l27 -35 3 -339 3 -338 -336 0 c-377 0 -427
-6 -550 -66 -232 -112 -364 -338 -364 -619 0 -208 65 -370 201 -504 68 -67
143 -112 243 -148 l80 -28 363 -3 364 -3 -4 -252 c-3 -250 -3 -252 -30 -310
-37 -78 -120 -158 -195 -189 l-58 -23 -1680 -3 c-1190 -2 -1699 1 -1747 8
-186 31 -350 169 -417 353 l-26 72 -3 1298 c-1 713 0 1297 2 1297 2 0 37 -16
78 -35z m4078 -1530 l0 -366 -342 3 c-337 3 -344 3 -396 27 -68 31 -144 113
-169 183 -27 79 -25 256 4 320 25 54 94 133 137 155 74 39 105 42 439 42 l327
1 0 -365z"/>
<path d="M950 4318 c-47 -32 -71 -68 -77 -116 -7 -54 24 -118 74 -152 l37 -25
1265 0 1266 0 37 23 c49 31 82 99 75 154 -6 48 -30 84 -77 116 l-33 22 -1267
0 -1267 0 -33 -22z"/>
</g>
</svg>
