<svg width="33" height="33" viewBox="0 0 33 33" fill="none" xmlns="http://www.w3.org/2000/svg">
<path d="M21.3221 0.816858V0.754023C19.7722 0.272286 18.1175 0 16.4 0C7.35173 0 0 7.35173 0 16.4C0 16.9446 0.0209451 17.5101 0.0837803 18.0337H21.3221V0.816858Z" fill="#3F51B5"/>
<path d="M21.3223 5.7389H28.8415C28.0666 4.81732 27.1659 4.00046 26.2025 3.28833H21.3223V5.7389Z" fill="#ECEFF1"/>
<path d="M32.7164 18.0547H0.0839844C0.167765 18.8925 0.335325 19.7093 0.544776 20.5053H32.2556C32.4651 19.7093 32.6326 18.8925 32.7164 18.0547Z" fill="#ECEFF1"/>
<path d="M28.108 27.8779H4.69141C5.61299 28.8205 6.66024 29.6373 7.79128 30.3285H25.0081C26.1392 29.6373 27.1864 28.8205 28.108 27.8779Z" fill="#ECEFF1"/>
<path d="M31.4181 22.9558H1.38281C1.75982 23.8146 2.19967 24.6314 2.7233 25.4064H30.0985C30.6012 24.6524 31.0411 23.8355 31.4181 22.9558Z" fill="#ECEFF1"/>
<path d="M21.3223 10.661H31.7529C31.4387 9.80228 31.0408 8.98542 30.6009 8.21045H21.3223V10.661Z" fill="#ECEFF1"/>
<path d="M21.3223 15.5831H32.7583C32.7164 14.7453 32.6326 13.9285 32.465 13.1326H21.3223V15.5831Z" fill="#ECEFF1"/>
<path d="M21.3217 3.28834H26.2019C24.7986 2.22014 23.2068 1.38234 21.4893 0.837769H21.3008V3.28834H21.3217Z" fill="#F44336"/>
<path d="M21.3223 8.21046H30.58C30.0773 7.33077 29.4908 6.51391 28.8415 5.75989H21.3223V8.21046Z" fill="#F44336"/>
<path d="M21.3217 13.1326H32.4645C32.297 12.2948 32.0456 11.4779 31.7314 10.682H21.3008V13.1326H21.3217Z" fill="#F44336"/>
<path d="M21.3223 18.0547H32.7164C32.7792 17.5101 32.8002 16.9656 32.8002 16.421C32.8002 16.1487 32.7792 15.8764 32.7583 15.6041H21.3223V18.0547Z" fill="#F44336"/>
<path d="M32.2558 20.5052H0.544922C0.754373 21.3431 1.02666 22.1809 1.38273 22.9558H31.418C31.774 22.1809 32.0463 21.3431 32.2558 20.5052Z" fill="#F44336"/>
<path d="M30.0973 25.4274H2.70117C3.28763 26.3071 3.95788 27.1449 4.69096 27.8779H28.0866C28.8406 27.1239 29.5109 26.3071 30.0973 25.4274Z" fill="#F44336"/>
<path d="M7.79102 30.3495C10.3044 31.8994 13.2367 32.8001 16.3994 32.8001C19.5622 32.8001 22.4945 31.8994 25.0079 30.3495H7.79102Z" fill="#F44336"/>
<path d="M5.13137 7.39368L5.50838 8.21054L6.36713 8.33621L5.75972 8.96456L5.90634 9.8652L5.15232 9.4463L4.39829 9.8652L4.54491 8.96456L3.9375 8.33621L4.79625 8.21054L5.13137 7.39368Z" fill="white"/>
<path d="M8.39895 7.39368L8.77596 8.21054L9.63471 8.33621L9.0273 8.96456L9.17392 9.8652L8.41989 9.4463L7.66587 9.8652L7.81249 8.96456L7.20508 8.33621L8.06383 8.21054L8.39895 7.39368Z" fill="white"/>
<path d="M1.84327 9.42526L2.59729 9.84417L2.45068 8.96447L3.05808 8.33612L2.19934 8.21045C1.92705 8.67124 1.67571 9.15298 1.44531 9.65566L1.84327 9.42526Z" fill="white"/>
<path d="M11.688 7.39368L12.065 8.21054L12.9238 8.33621L12.3164 8.96456L12.463 9.8652L11.709 9.4463L10.9549 9.8652L11.1015 8.96456L10.4941 8.33621L11.3529 8.21054L11.688 7.39368Z" fill="white"/>
<path d="M14.9556 7.39368L15.3326 8.21054L16.1913 8.33621L15.5839 8.96456L15.7306 9.8652L14.9765 9.4463L14.2225 9.8652L14.3691 8.96456L13.7617 8.33621L14.6205 8.21054L14.9556 7.39368Z" fill="white"/>
<path d="M18.0337 7.39368L18.4107 8.21054L19.2695 8.33621L18.6621 8.96456L18.8087 9.8652L18.0547 9.4463L17.3006 9.8652L17.4473 8.96456L16.8398 8.33621L17.6986 8.21054L18.0337 7.39368Z" fill="white"/>
<path d="M5.13137 13.9495L5.50838 14.7663L6.36713 14.892L5.75972 15.5203L5.90634 16.421L5.15232 16.0021L4.39829 16.421L4.54491 15.5203L3.9375 14.892L4.79625 14.7663L5.13137 13.9495Z" fill="white"/>
<path d="M8.39895 13.9495L8.77596 14.7663L9.63471 14.892L9.0273 15.5203L9.17392 16.421L8.41989 16.0021L7.66587 16.421L7.81249 15.5203L7.20508 14.892L8.06383 14.7663L8.39895 13.9495Z" fill="white"/>
<path d="M11.688 13.9495L12.065 14.7663L12.9238 14.892L12.3164 15.5203L12.463 16.421L11.709 16.0021L10.9549 16.421L11.1015 15.5203L10.4941 14.892L11.3529 14.7663L11.688 13.9495Z" fill="white"/>
<path d="M1.84231 13.9495L2.21932 14.7663L3.07807 14.892L2.47066 15.5203L2.61728 16.421L1.86325 16.0021L1.10923 16.421L1.25585 15.5203L0.648438 14.892L1.4653 14.7454L1.84231 13.9495Z" fill="white"/>
<path d="M14.9556 13.9495L15.3326 14.7663L16.1913 14.892L15.5839 15.5203L15.7306 16.421L14.9765 16.0021L14.2225 16.421L14.3691 15.5203L13.7617 14.892L14.6205 14.7663L14.9556 13.9495Z" fill="white"/>
<path d="M18.0337 13.9495L18.4107 14.7663L19.2695 14.892L18.6621 15.5203L18.8087 16.421L18.0547 16.0021L17.3006 16.421L17.4473 15.5203L16.8398 14.892L17.6986 14.7663L18.0337 13.9495Z" fill="white"/>
<path d="M5.94778 10.661L6.32479 11.4779L7.18354 11.6035L6.57613 12.2319L6.72274 13.1325L5.96872 12.7136L5.2147 13.1325L5.36131 12.2319L4.75391 11.6035L5.61265 11.4779L5.94778 10.661Z" fill="white"/>
<path d="M9.21535 10.661L9.59237 11.4779L10.4511 11.6035L9.84371 12.2319L9.99032 13.1325L9.2363 12.7136L8.48228 13.1325L8.62889 12.2319L8.02148 11.6035L8.88023 11.4779L9.21535 10.661Z" fill="white"/>
<path d="M2.66067 10.661L3.03768 11.4779L3.89643 11.6035L3.28902 12.2319L3.43563 13.1325L2.68161 12.7136L1.92759 13.1325L2.0742 12.2319L1.4668 11.6035L2.32555 11.4779L2.66067 10.661Z" fill="white"/>
<path d="M12.5044 10.661L12.8814 11.4779L13.7402 11.6035L13.1328 12.2319L13.2794 13.1325L12.5254 12.7136L11.7713 13.1325L11.918 12.2319L11.3105 11.6035L12.1693 11.4779L12.5044 10.661Z" fill="white"/>
<path d="M15.7935 10.661L16.1705 11.4779L17.0292 11.6035L16.4218 12.2319L16.5684 13.1325L15.8144 12.7136L15.0604 13.1325L15.207 12.2319L14.5996 11.6035L15.4584 11.4779L15.7935 10.661Z" fill="white"/>
<path d="M18.8501 10.661L19.2271 11.4779L20.0859 11.6035L19.4785 12.2319L19.6251 13.1325L18.8711 12.7136L18.117 13.1325L18.2637 12.2319L17.6562 11.6035L18.515 11.4779L18.8501 10.661Z" fill="white"/>
<path d="M5.94778 4.10522L6.32479 4.92208L7.18354 5.04775L6.57613 5.67611L6.72274 6.57674L5.96872 6.15784L5.2147 6.57674L5.36131 5.67611L4.75391 5.04775L5.61265 4.92208L5.94778 4.10522Z" fill="white"/>
<path d="M9.21535 4.10522L9.59237 4.92208L10.4511 5.04775L9.84371 5.67611L9.99032 6.57674L9.2363 6.15784L8.48228 6.57674L8.62889 5.67611L8.02148 5.04775L8.88023 4.92208L9.21535 4.10522Z" fill="white"/>
<path d="M12.5044 4.10522L12.8814 4.92208L13.7402 5.04775L13.1328 5.67611L13.2794 6.57674L12.5254 6.15784L11.7713 6.57674L11.918 5.67611L11.3105 5.04775L12.1693 4.92208L12.5044 4.10522Z" fill="white"/>
<path d="M15.7935 4.10522L16.1705 4.92208L17.0292 5.04775L16.4218 5.67611L16.5684 6.57674L15.8144 6.15784L15.0604 6.57674L15.207 5.67611L14.5996 5.04775L15.4584 4.92208L15.7935 4.10522Z" fill="white"/>
<path d="M18.8501 4.10522L19.2271 4.92208L20.0859 5.04775L19.4785 5.67611L19.6251 6.57674L18.8711 6.15784L18.117 6.57674L18.2637 5.67611L17.6562 5.04775L18.515 4.92208L18.8501 4.10522Z" fill="white"/>
<path d="M9.17352 3.28836L9.02691 2.38772L9.63431 1.75937L9.17352 1.69653C8.69179 1.92693 8.23099 2.19922 7.7702 2.4715L7.64453 3.28836L8.39855 2.86946L9.17352 3.28836Z" fill="white"/>
<path d="M11.688 0.816895L12.065 1.63375L12.9238 1.75942L12.3164 2.38778L12.463 3.28841L11.709 2.86951L10.9549 3.28841L11.1015 2.38778L10.4941 1.75942L11.311 1.63375L11.688 0.816895Z" fill="white"/>
<path d="M14.9556 0.816895L15.3326 1.63375L16.1913 1.75942L15.5839 2.38778L15.7306 3.28841L14.9765 2.86951L14.2225 3.28841L14.3691 2.38778L13.7617 1.75942L14.6205 1.63375L14.9556 0.816895Z" fill="white"/>
<path d="M18.0343 0.816895L18.4322 1.63375L19.291 1.75942L18.6835 2.38778L18.8302 3.26747L18.0761 2.84857L17.3221 3.26747L17.4687 2.36683L16.8613 1.73848L17.7201 1.61281L18.0343 0.816895Z" fill="white"/>
</svg>
