<svg xmlns="http://www.w3.org/2000/svg" width="74.726" height="67.428" viewBox="0 0 74.726 67.428">
  <g id="ewallet" transform="translate(0 0)">
    <g id="Grupo_65042" data-name="Grupo 65042" transform="translate(59.645 48.163)">
      <path id="Trazado_13683" data-name="Trazado 13683" d="M410.277,374.265a1.605,1.605,0,0,1-1.605-1.605V356.605a1.605,1.605,0,1,1,3.211,0V372.66A1.605,1.605,0,0,1,410.277,374.265Z" transform="translate(-408.672 -355)" fill="#e4b574"/>
    </g>
    <g id="Grupo_65043" data-name="Grupo 65043" transform="translate(59.645 17.514)">
      <path id="Trazado_13684" data-name="Trazado 13684" d="M410.277,164.265a1.605,1.605,0,0,1-1.605-1.605V146.605a1.605,1.605,0,1,1,3.211,0V162.66A1.605,1.605,0,0,1,410.277,164.265Z" transform="translate(-408.672 -145)" fill="#e4b574"/>
    </g>
    <g id="Grupo_65046" data-name="Grupo 65046" transform="translate(0 0)">
      <g id="Grupo_65044" data-name="Grupo 65044">
        <path id="Trazado_13685" data-name="Trazado 13685" d="M58.283,45.725H10.508a10.363,10.363,0,1,1,0-20.725H58.283a1.605,1.605,0,0,1,1.605,1.605v8.757a1.605,1.605,0,1,1-3.211,0V28.211H10.508a7.153,7.153,0,1,0,0,14.3H58.283a1.605,1.605,0,0,1,0,3.211Z" transform="translate(0 -25)" fill="#e4b574"/>
      </g>
      <g id="Grupo_65045" data-name="Grupo 65045" transform="translate(8.902 8.757)">
        <path id="Trazado_13686" data-name="Trazado 13686" d="M116.312,96.968H62.6A1.605,1.605,0,0,1,61,95.362V86.605A1.605,1.605,0,0,1,62.6,85h53.71a1.605,1.605,0,0,1,1.605,1.605v8.757A1.605,1.605,0,0,1,116.312,96.968Zm-52.1-3.211h50.5V88.211h-50.5Z" transform="translate(-60.996 -85)" fill="#e4b574"/>
      </g>
    </g>
    <path id="Trazado_13687" data-name="Trazado 13687" d="M73.12,109.811H71.758V95.362a1.605,1.605,0,0,0-1.605-1.605H10.508a7.233,7.233,0,0,1-7.3-7.151,1.605,1.605,0,0,0-3.211,0v46.7a10.448,10.448,0,0,0,10.508,10.362H70.153a1.605,1.605,0,0,0,1.605-1.605V127.617H73.12a1.605,1.605,0,0,0,1.605-1.605V111.417A1.605,1.605,0,0,0,73.12,109.811Zm-1.605,14.595H59.646a5.692,5.692,0,1,1,0-11.384H71.515Zm-48.4-7.881a2.774,2.774,0,1,1-2.846,2.773A2.813,2.813,0,0,1,23.119,116.525ZM68.547,140.46H10.508a7.233,7.233,0,0,1-7.3-7.151V94.055a10.55,10.55,0,0,0,7.3,2.913H21.514v16.561a6.057,6.057,0,1,0,3.211,0V96.968h8.659V114.19a1.605,1.605,0,0,0,.426,1.09l4.025,4.355v4.257a6.057,6.057,0,1,0,3.211,0v-4.885a1.605,1.605,0,0,0-.426-1.09l-4.025-4.355V96.968H68.547v12.843h-8.9a8.9,8.9,0,1,0,0,17.806h8.9V140.46ZM39.44,126.887a2.774,2.774,0,1,1-2.846,2.773A2.813,2.813,0,0,1,39.44,126.887Z" transform="translate(0 -76.243)" fill="#e4b574"/>
  </g>
</svg>
