<?xml version="1.0" standalone="no"?>
<!DOCTYPE svg PUBLIC "-//W3C//DTD SVG 20010904//EN"
 "http://www.w3.org/TR/2001/REC-SVG-20010904/DTD/svg10.dtd">
<svg version="1.0" xmlns="http://www.w3.org/2000/svg"
 width="75" height="67" viewBox="0 0 179.000000 208.000000"
 preserveAspectRatio="xMidYMid meet">

<g transform="translate(0.000000,208.000000) scale(0.100000,-0.100000)"
fill="#e4b574" stroke="none">
<path d="M412 2060 c-105 -28 -181 -72 -255 -149 -111 -115 -164 -254 -154
-406 21 -292 248 -505 539 -505 309 0 553 257 535 565 -13 241 -174 434 -413
495 -95 25 -158 25 -252 0z m332 -108 c287 -142 351 -515 128 -740 -274 -275
-737 -122 -791 261 -21 147 27 287 133 392 103 101 197 137 349 131 91 -3 103
-6 181 -44z"/>
<path d="M480 1900 c-11 -11 -20 -31 -20 -45 0 -17 -9 -29 -27 -39 -62 -32
-103 -96 -103 -161 0 -80 41 -130 153 -186 46 -23 75 -44 71 -50 -7 -13 -59
-8 -127 12 -57 16 -71 7 -92 -63 -18 -63 -5 -88 62 -112 42 -15 53 -23 58 -46
9 -40 29 -53 82 -53 51 0 83 26 83 68 0 17 11 30 40 46 75 43 110 129 85 214
-18 62 -48 92 -145 141 -69 36 -73 39 -45 42 16 2 46 -2 66 -8 48 -16 71 -10
88 24 38 79 22 125 -49 143 -28 7 -36 15 -38 36 -2 15 -13 34 -25 42 -31 22
-93 19 -117 -5z m125 -132 c25 -7 45 -18 45 -25 0 -10 -8 -11 -27 -6 -16 5
-50 8 -77 7 -41 -1 -54 -6 -73 -28 -49 -58 -23 -102 93 -157 91 -43 114 -70
114 -131 0 -45 -22 -74 -80 -103 -42 -21 -50 -30 -56 -62 l-7 -38 -12 35 c-9
29 -20 38 -56 50 -24 9 -49 18 -56 20 -7 3 -9 10 -5 17 6 9 20 9 59 -3 90 -26
163 9 163 79 0 48 -17 65 -111 112 -71 36 -93 52 -106 79 -27 57 -1 107 76
148 19 11 36 30 43 50 l12 33 8 -33 c7 -27 15 -34 53 -44z"/>
<path d="M1293 1590 c-71 -23 -139 -71 -166 -117 -10 -18 -31 -68 -46 -111
-84 -238 -271 -379 -516 -390 -143 -6 -237 21 -353 100 -24 16 -49 28 -56 25
-7 -3 -25 -43 -41 -89 -73 -219 -24 -450 139 -654 82 -102 106 -152 117 -238
14 -110 15 -111 215 -111 l166 0 24 28 c13 15 24 39 24 53 0 23 3 24 65 24
l64 0 7 -34 c12 -66 26 -71 211 -71 l165 0 24 28 c20 23 24 39 24 88 0 83 17
117 107 212 83 87 131 154 158 225 15 36 21 42 47 42 44 0 88 27 104 65 19 47
19 243 0 290 -17 40 -52 65 -103 72 -35 5 -40 10 -71 74 -20 42 -59 96 -103
143 -63 68 -70 79 -70 118 -1 24 8 65 20 91 55 127 -11 184 -156 137z m102
-77 c-42 -99 -47 -121 -42 -171 5 -49 11 -58 76 -128 47 -50 84 -103 111 -157
23 -45 45 -86 50 -90 4 -5 32 -12 61 -15 l54 -7 3 -124 c2 -80 -1 -128 -8
-137 -7 -7 -33 -14 -58 -16 l-47 -3 -47 -97 c-39 -78 -64 -113 -130 -180 -92
-94 -125 -154 -134 -246 l-7 -62 -133 0 -134 0 0 50 0 50 -145 0 -145 0 0 -50
0 -50 -134 0 -133 0 -7 51 c-11 83 -44 156 -107 234 -127 157 -180 285 -182
435 -1 84 18 190 33 190 4 0 34 -13 67 -29 114 -57 249 -79 369 -61 256 38
460 213 529 453 21 72 64 123 130 153 62 29 121 33 110 7z"/>
<path d="M1269 1111 c-55 -55 -30 -148 45 -167 100 -25 169 94 97 167 -41 41
-101 41 -142 0z m91 -56 c15 -18 5 -35 -20 -35 -22 0 -34 15 -26 35 7 19 30
19 46 0z"/>
</g>
</svg>
