<svg xmlns="http://www.w3.org/2000/svg" width="19.968" height="16.66" viewBox="0 0 19.968 16.66">
  <path id="headset" d="M17.5,10.683V9.5A7.5,7.5,0,0,0,2.5,9.5v1.186A4.165,4.165,0,0,0,4.167,18.66a1.666,1.666,0,0,0,1.666-1.666V12A1.666,1.666,0,0,0,4.167,10.33V9.5a5.831,5.831,0,0,1,11.662,0v.833A1.666,1.666,0,0,0,14.163,12v5h-2.5a.833.833,0,1,0,0,1.666h4.165A4.165,4.165,0,0,0,17.5,10.683ZM4.167,16.994h0a2.5,2.5,0,0,1,0-5Zm11.662,0V12a2.5,2.5,0,0,1,0,5Z" transform="translate(-0.015 -2)" fill="#00BEB0"/>
</svg>
