<svg xmlns="http://www.w3.org/2000/svg" width="24" height="24" viewBox="0 0 24 24">
  <g id="Grupo_64968" data-name="Grupo 64968" transform="translate(6364 6994)">
    <rect id="Rectángulo_3733" data-name="Rectángulo 3733" width="24" height="24" transform="translate(-6364 -6994)" fill="#00BEB0" opacity="0"/>
    <path id="life-ring" d="M17.6,16.424a9.946,9.946,0,0,0,0-12.881l.716-.716a.832.832,0,0,0-1.177-1.176l-.716.716a9.946,9.946,0,0,0-12.881,0l-.716-.716A.832.832,0,1,0,1.651,2.829l.716.715a9.946,9.946,0,0,0,0,12.881l-.716.716a.832.832,0,1,0,1.177,1.176l.715-.716a9.946,9.946,0,0,0,12.881,0l.716.716a.832.832,0,1,0,1.176-1.177Zm.7-6.44a8.277,8.277,0,0,1-1.882,5.262l-2.971-2.971a4.132,4.132,0,0,0,0-4.581l2.971-2.971A8.277,8.277,0,0,1,18.3,9.984Zm-10.816,0a2.5,2.5,0,1,1,2.5,2.5A2.5,2.5,0,0,1,7.488,9.984Zm2.5-8.32a8.277,8.277,0,0,1,5.262,1.882L12.274,6.517a4.132,4.132,0,0,0-4.581,0L4.722,3.546A8.277,8.277,0,0,1,9.984,1.664Zm-8.32,8.32A8.277,8.277,0,0,1,3.546,4.722L6.517,7.693a4.132,4.132,0,0,0,0,4.581L3.546,15.245A8.277,8.277,0,0,1,1.664,9.984Zm8.32,8.32a8.277,8.277,0,0,1-5.262-1.882l2.971-2.971a4.132,4.132,0,0,0,4.581,0l2.971,2.971A8.277,8.277,0,0,1,9.984,18.3Z" transform="translate(-6361.984 -6992)" fill="#00BEB0"/>
  </g>
</svg>
