<svg xmlns="http://www.w3.org/2000/svg" width="19.968" height="19.967" viewBox="0 0 14.903 19.871">
  <path id="Trazado_13754" data-name="Trazado 13754" d="M74.763,0H68.14A4.145,4.145,0,0,0,64,4.14v14.9a.828.828,0,0,0,1.295.683l1.744-1.191,1.744,1.191a.828.828,0,0,0,.936,0l1.739-1.191L73.2,19.726a.828.828,0,0,0,.936,0l1.739-1.191,1.739,1.19a.828.828,0,0,0,1.294-.682V4.14A4.145,4.145,0,0,0,74.763,0Zm2.484,17.469-.911-.623a.828.828,0,0,0-.937,0L73.66,18.038l-1.739-1.191a.828.828,0,0,0-.936,0l-1.739,1.191-1.739-1.191a.828.828,0,0,0-.935,0l-.917.623V4.14A2.484,2.484,0,0,1,68.14,1.656h6.623A2.484,2.484,0,0,1,77.247,4.14ZM74.763,6.623H68.14a.828.828,0,1,0,0,1.656h6.623a.828.828,0,1,0,0-1.656ZM73.107,9.935H68.14a.828.828,0,1,0,0,1.656h4.968a.828.828,0,0,0,0-1.656Z" transform="translate(-64)" fill="#00BEB0"/>
</svg>
