<?xml version="1.0" standalone="no"?>
<!DOCTYPE svg PUBLIC "-//W3C//DTD SVG 20010904//EN"
 "http://www.w3.org/TR/2001/REC-SVG-20010904/DTD/svg10.dtd">
<svg version="1.0" xmlns="http://www.w3.org/2000/svg"
 width="19.968" height="19.967" viewBox="0 0 190.000000 257.000000"
 preserveAspectRatio="xMidYMid meet">

<g transform="translate(0.000000,257.000000) scale(0.100000,-0.100000)"
fill="#000000" stroke="none">
<path d="M624 2560 c-48 -19 -54 -43 -54 -221 0 -92 3 -175 6 -184 16 -41 48
-45 378 -45 l315 0 28 24 28 24 3 162 c2 113 0 172 -9 192 -22 54 -47 58 -376
57 -164 0 -308 -4 -319 -9z"/>
<path d="M121 2327 c-54 -17 -98 -68 -111 -129 -8 -38 -10 -330 -8 -1058 3
-927 4 -1007 20 -1036 23 -43 71 -81 116 -94 24 -6 308 -10 808 -10 831 0 843
1 892 52 54 58 52 13 52 1122 0 702 -3 1034 -11 1053 -15 40 -48 73 -94 94
-32 15 -65 19 -161 19 l-121 0 -5 -98 c-9 -147 -44 -214 -139 -267 l-54 -30
-333 -3 c-394 -4 -414 -1 -492 77 -60 60 -80 120 -80 238 l0 83 -122 -1 c-68
-1 -138 -6 -157 -12z m1243 -726 c42 -39 34 -101 -15 -126 -23 -12 -94 -15
-408 -15 -380 0 -380 0 -405 23 -28 24 -34 48 -23 89 15 56 26 58 444 55 l381
-2 26 -24z m1 -486 c16 -15 25 -36 25 -55 0 -19 -9 -40 -25 -55 l-24 -25 -388
0 c-422 0 -422 0 -443 56 -11 28 3 73 27 92 13 9 111 12 410 12 l394 0 24 -25z
m0 -480 c16 -15 25 -36 25 -55 0 -19 -9 -40 -25 -55 l-24 -25 -392 0 c-389 0
-393 0 -416 22 -33 31 -32 90 3 117 26 20 37 21 416 21 l389 0 24 -25z"/>
</g>
</svg>
