<svg width="19" height="14" viewBox="0 0 19 14" fill="none" xmlns="http://www.w3.org/2000/svg">
  <path d="M18.2178 2.14374C18.1332 2.3988 18.0487 2.65386 17.8372 2.84516C17.5835 3.07896 17.2664 3.18524 16.907 3.18524C15.2157 3.18524 13.5243 3.18524 11.8119 3.18524C10.3319 3.18524 8.85203 3.18524 7.37212 3.18524C6.80129 3.18524 6.33618 2.86641 6.16704 2.37755C5.91334 1.63362 6.3996 0.740906 7.39326 0.740906C7.81609 0.740906 8.23893 0.740906 8.66176 0.740906C11.389 0.740906 14.1163 0.740906 16.8436 0.740906C17.203 0.740906 17.5413 0.825926 17.8161 1.08099C18.0275 1.27228 18.1332 1.52734 18.1966 1.80366C18.2178 1.90993 18.2178 2.01621 18.2178 2.14374Z" fill="#000000"/>
  <path d="M18.2179 11.8573C18.1545 12.1124 18.0488 12.3675 17.8585 12.5587C17.6048 12.8138 17.2877 12.9201 16.9283 12.9201C13.757 12.9201 10.5858 12.9201 7.41455 12.9201C6.50546 12.9201 5.9135 12.1549 6.18834 11.3047C6.33633 10.8583 6.65346 10.6033 7.11857 10.5183C7.24542 10.497 7.35113 10.497 7.47798 10.497C10.5647 10.497 13.6513 10.497 16.738 10.497C17.6048 10.497 17.922 10.7096 18.2179 11.5385C18.2179 11.6235 18.2179 11.7298 18.2179 11.8573Z" fill="#000000"/>
  <path d="M18.2179 6.98992C18.1334 7.28749 18.0065 7.5638 17.7528 7.77635C17.5626 7.92514 17.3511 8.01016 17.0974 8.03141C17.034 8.03141 16.9706 8.03141 16.9072 8.03141C13.7571 8.03141 10.5858 8.03141 7.4357 8.03141C6.90716 8.03141 6.50547 7.84012 6.25177 7.35125C5.87122 6.60733 6.39976 5.6721 7.22429 5.60834C7.30885 5.60834 7.39342 5.60834 7.45684 5.60834C10.6069 5.60834 13.7359 5.60834 16.886 5.60834C17.4146 5.60834 17.8374 5.79963 18.0911 6.2885C18.1545 6.39477 18.1757 6.52231 18.2179 6.64984C18.2179 6.75611 18.2179 6.88364 18.2179 6.98992Z" fill="#000000"/>
  <path d="M4.30663 1.95245C4.30663 2.95143 3.4821 3.78038 2.48845 3.78038C1.49479 3.78038 0.691406 2.95143 0.691406 1.95245C0.691406 0.953459 1.51593 0.124512 2.50959 0.124512C3.50325 0.145767 4.30663 0.953459 4.30663 1.95245Z" fill="#000000"/>
  <path d="M2.48859 13.4939C1.49493 13.4939 0.67041 12.6862 0.67041 11.6872C0.67041 10.6883 1.49493 9.85931 2.48859 9.85931C3.48225 9.85931 4.30677 10.6883 4.30677 11.6872C4.30677 12.6862 3.48225 13.5152 2.48859 13.4939Z" fill="#000000"/>
  <path d="M0.691316 6.81988C0.691316 5.82089 1.51584 4.99194 2.5095 4.99194C3.50315 4.99194 4.30654 5.82089 4.30654 6.81988C4.30654 7.81887 3.48201 8.64781 2.48836 8.64781C1.4947 8.62656 0.670174 7.81887 0.691316 6.81988Z" fill="#000000"/>
</svg>