<svg width="26" height="20" viewBox="0 0 26 20" fill="none" xmlns="http://www.w3.org/2000/svg">
<g clip-path="url(#clip0_222_395)">
<path d="M25.8181 3.39258C25.8181 7.85686 25.8181 12.1426 25.8181 16.6069C25.4545 18.214 24.3636 19.1069 22.7272 19.1069C18.5454 19.1069 14.5454 19.1069 10.3636 19.1069C7.99995 19.1069 5.63632 19.1069 3.4545 19.1069C1.81814 19.1069 0.54541 17.8569 0.54541 16.2497C0.54541 11.964 0.54541 7.85686 0.54541 3.57115C0.54541 2.49972 1.09086 1.78544 1.99996 1.24972C2.36359 1.07115 2.72723 0.892578 3.09086 0.892578C9.81814 0.892578 16.7272 0.892578 23.4545 0.892578H23.6363C24.5454 1.07115 25.2727 1.60686 25.6363 2.32115C25.6363 2.67829 25.6363 3.03544 25.8181 3.39258ZM1.63632 8.21401C1.63632 8.39258 1.63632 8.39258 1.63632 8.57115C1.63632 11.0711 1.63632 13.5711 1.63632 16.0711C1.63632 17.1426 2.36359 17.8569 3.4545 17.8569C9.81814 17.8569 16.3636 17.8569 22.7272 17.8569C23.8181 17.8569 24.5454 17.1426 24.5454 16.0711C24.5454 13.5711 24.5454 11.0711 24.5454 8.57115C24.5454 8.39258 24.5454 8.39258 24.5454 8.21401C16.909 8.21401 9.27268 8.21401 1.63632 8.21401ZM24.5454 4.46401C24.5454 4.28544 24.5454 4.10686 24.5454 3.92829C24.5454 2.85686 23.8181 2.14258 22.7272 2.14258C21.2727 2.14258 19.8181 2.14258 18.3636 2.14258C13.2727 2.14258 8.36359 2.14258 3.27268 2.14258C2.36359 2.14258 1.81814 2.67829 1.63632 3.57115C1.63632 3.92829 1.63632 4.28543 1.63632 4.64258C9.27268 4.46401 16.909 4.46401 24.5454 4.46401Z" fill="#000000"/>
<path d="M8.72721 11.9639C10.1818 11.9639 11.4545 11.9639 12.909 11.9639C13.4545 11.9639 13.6363 12.1424 13.6363 12.8567C13.6363 13.571 13.6363 14.2853 13.6363 14.9996C13.6363 15.5353 13.4545 15.7139 12.909 15.7139C10.1818 15.7139 7.27266 15.7139 4.54539 15.7139C3.99993 15.7139 3.81812 15.5353 3.81812 14.9996C3.81812 14.2853 3.81812 13.571 3.81812 12.8567C3.81812 12.321 3.99993 12.1424 4.54539 12.1424C5.99993 11.9639 7.27266 11.9639 8.72721 11.9639Z" fill="#000000"/>
</g>
<defs>
<clipPath id="clip0_222_395">
<rect width="26" height="20" fill="white"/>
</clipPath>
</defs>
</svg>