<svg xmlns="http://www.w3.org/2000/svg" width="19.33" height="25.774" viewBox="0 0 19.33 25.774">
  <path id="Trazado_13678" data-name="Trazado 13678" d="M-2571.818,15582.7a7.517,7.517,0,0,0-7.517-7.518,7.518,7.518,0,0,0-7.518,7.518,1.075,1.075,0,0,1-1.074,1.074,1.075,1.075,0,0,1-1.074-1.074,9.676,9.676,0,0,1,9.666-9.666,9.676,9.676,0,0,1,9.664,9.666,1.075,1.075,0,0,1-1.074,1.074A1.075,1.075,0,0,1-2571.818,15582.7Zm-13.961-18.256a6.444,6.444,0,0,1,6.444-6.444,6.444,6.444,0,0,1,6.443,6.444,6.443,6.443,0,0,1-6.443,6.442A6.45,6.45,0,0,1-2585.779,15564.443Zm2.147,0a4.3,4.3,0,0,0,4.3,4.295,4.3,4.3,0,0,0,4.3-4.295,4.3,4.3,0,0,0-4.3-4.3A4.3,4.3,0,0,0-2583.631,15564.443Z" transform="translate(2589 -15557.999)" fill="#e4cea1"/>
</svg>
