<svg xmlns="http://www.w3.org/2000/svg" width="53" height="53" viewBox="0 0 53 53">
  <g id="Grupo_64936" data-name="Grupo 64936" transform="translate(-1532 -14)">
    <rect id="Rectángulo_3721" data-name="Rectángulo 3721" width="53" height="53" rx="14" transform="translate(1532 14)" fill="#e5f9f7"/>
    <path id="briefcase" d="M20.457,4.307H19.273A5.393,5.393,0,0,0,14,0H11.844A5.393,5.393,0,0,0,6.568,4.307H5.384A5.39,5.39,0,0,0,0,9.69V20.457a5.39,5.39,0,0,0,5.384,5.384H20.457a5.39,5.39,0,0,0,5.384-5.384V9.69a5.39,5.39,0,0,0-5.384-5.384ZM11.844,2.153H14a3.23,3.23,0,0,1,3.032,2.153H8.812A3.23,3.23,0,0,1,11.844,2.153ZM5.384,6.46H20.457a3.23,3.23,0,0,1,3.23,3.23v3.23H2.153V9.69a3.23,3.23,0,0,1,3.23-3.23ZM20.457,23.687H5.384a3.23,3.23,0,0,1-3.23-3.23V15.074h9.69v1.077a1.077,1.077,0,1,0,2.153,0V15.074h9.69v5.384A3.23,3.23,0,0,1,20.457,23.687Z" transform="translate(1546 28)" fill="#0f655d"/>
  </g>
</svg>
