<svg width="36" height="38" viewBox="0 0 36 38" fill="none" xmlns="http://www.w3.org/2000/svg">
<rect width="36" height="37.0449" rx="8" fill="#ECEFF1"/>
<path d="M15.546 6C17.8114 6 20.1675 6 22.4329 6C23.611 6 24.6984 6.08819 25.7858 6.44093C28.1418 7.23461 29.5011 8.91015 29.8636 11.203C30.0448 12.4376 30.0448 13.6722 29.8636 14.8186C29.6823 16.3178 29.5917 17.7288 29.4105 19.2279C29.2292 20.7271 29.048 22.2263 28.9574 23.6372C28.7762 25.1364 28.6855 26.5474 28.5043 28.0466C28.4137 28.8402 28.3231 29.6339 28.2325 30.4276C28.2325 30.604 28.0512 30.7803 27.87 30.7803C25.967 30.7803 24.064 30.7803 22.1611 30.7803C21.8892 30.7803 21.708 30.604 21.7986 30.3394C22.0705 27.782 22.3423 25.1364 22.6142 22.579C22.886 20.3744 23.0672 18.0815 23.3391 15.8769C23.4297 15.1714 23.4297 14.4659 23.2485 13.8486C22.9766 12.5258 22.0704 11.7321 20.5299 11.4675C19.5332 11.2912 18.4457 11.3794 17.4489 11.7321C16.6334 11.9967 15.9084 11.9085 15.1835 11.4675C13.0087 10.1448 10.6526 9.1747 8.20595 8.46921C8.02471 8.38103 7.75286 8.38103 7.57162 8.29284C7.29977 8.20466 7.11853 8.11647 7.02792 7.85191C6.75606 7.3228 6.84668 6.70549 6.9373 6.17637C6.9373 6.08819 7.02792 6.08819 7.11853 6C7.20915 6 7.29977 6 7.29977 6C10.1089 6 12.8274 6 15.546 6Z" fill="black"/>
<path d="M9.2032 30.8684C8.29702 30.8684 7.39084 30.8684 6.48467 30.8684C6.03158 30.8684 5.94096 30.7802 6.03158 30.3393C6.21281 28.8401 6.30343 27.341 6.48467 25.93C6.6659 24.2544 6.84714 22.6671 7.02837 20.9916C7.20961 19.4924 7.30023 17.9932 7.48146 16.5822C7.6627 14.9067 7.84393 13.3194 8.02517 11.6438C8.11578 11.2029 8.11579 10.6738 8.2064 10.2328C8.29702 9.7919 8.56887 9.70372 8.93134 9.88009C10.6531 10.762 12.2842 11.732 13.6435 13.0548C14.2778 13.5839 14.459 14.2012 14.1872 14.9949C13.9153 15.8768 13.8247 16.8468 13.7341 17.8168C13.6435 18.9633 13.4622 20.1097 13.3716 21.3443C13.281 22.3143 13.1904 23.3726 13.0998 24.3426C13.0091 25.4891 12.8279 26.6355 12.7373 27.8701C12.6467 28.7519 12.5561 29.5456 12.4654 30.4275C12.4654 30.5157 12.4654 30.5157 12.4654 30.6039C12.3748 31.0448 12.3748 31.0448 11.9217 31.0448C11.0155 30.8684 10.1094 30.8684 9.2032 30.8684Z" fill="#00BEB0"/>
</svg>
