<?xml version="1.0" standalone="no"?>
<!DOCTYPE svg PUBLIC "-//W3C//DTD SVG 20010904//EN"
 "http://www.w3.org/TR/2001/REC-SVG-20010904/DTD/svg10.dtd">
<svg version="1.0" xmlns="http://www.w3.org/2000/svg"
  width="19.968" height="19.967" viewBox="0 0 512.000000 512.000000"
 preserveAspectRatio="xMidYMid meet">

<g transform="translate(0.000000,512.000000) scale(0.100000,-0.100000)"
fill="#000000" stroke="none">
<path d="M1465 5105 c-294 -47 -536 -173 -743 -389 -158 -165 -263 -359 -322
-596 -31 -122 -38 -350 -16 -490 85 -535 485 -948 1031 -1066 110 -24 359 -24
477 -1 387 77 721 323 901 665 99 189 137 333 144 553 6 180 -10 304 -57 450
-107 326 -355 610 -665 759 -234 113 -505 154 -750 115z m295 -421 c6 -14 10
-51 10 -83 0 -35 5 -63 13 -69 6 -5 46 -16 88 -25 41 -8 98 -26 125 -39 61
-29 65 -49 26 -168 -33 -99 -32 -99 -152 -55 -60 22 -93 28 -165 28 -103 1
-145 -15 -170 -63 -42 -82 9 -139 196 -219 240 -103 320 -173 363 -320 57
-195 -50 -398 -249 -472 -33 -12 -66 -27 -72 -32 -9 -6 -13 -37 -13 -91 0
-117 -8 -126 -115 -126 -107 0 -115 7 -115 101 0 93 -8 105 -72 114 -76 10
-201 51 -233 77 -23 18 -26 27 -22 57 8 64 48 182 62 187 8 3 50 -8 94 -25
103 -40 161 -52 243 -53 124 0 205 60 194 145 -9 75 -49 109 -202 172 -208 86
-302 154 -351 253 -25 50 -28 68 -28 152 0 81 4 103 26 150 46 97 113 159 220
200 78 30 89 47 89 139 0 43 3 81 7 84 3 4 48 7 100 7 91 0 94 -1 103 -26z"/>
<path d="M3671 3895 c-181 -47 -350 -151 -430 -265 -27 -39 -52 -92 -72 -157
-108 -349 -205 -519 -419 -734 -226 -227 -475 -363 -790 -431 -89 -19 -135
-22 -305 -22 -168 0 -216 3 -301 22 -204 44 -401 126 -561 234 l-82 56 -30
-77 c-78 -204 -104 -345 -104 -561 0 -259 46 -445 177 -715 87 -178 183 -324
298 -456 47 -53 99 -117 117 -143 84 -121 143 -305 156 -480 7 -88 10 -102 35
-130 l28 -31 387 0 387 0 29 33 c28 31 29 35 29 137 l0 104 33 -7 c17 -4 139
-7 269 -7 l238 0 0 -97 c0 -94 1 -99 29 -130 l29 -33 381 -3 381 -3 36 34 37
34 7 164 c6 148 10 171 35 234 46 115 97 183 242 326 228 223 378 448 448 671
l18 56 101 4 c120 4 165 22 211 87 l30 43 3 301 c3 323 0 354 -44 407 -45 53
-78 65 -198 70 l-110 5 -31 80 c-84 216 -205 396 -392 581 -130 130 -132 132
-144 193 -25 127 0 253 81 412 45 88 47 106 24 155 -33 69 -105 80 -263 39z
m128 -1195 c37 -26 71 -90 71 -135 0 -45 -34 -109 -71 -135 -22 -16 -51 -25
-88 -28 -65 -4 -109 19 -149 78 -20 30 -23 44 -20 97 4 67 22 96 83 135 42 27
129 21 174 -12z"/>
</g>
</svg>
