<svg xmlns="http://www.w3.org/2000/svg" width="22.5" height="22.5" viewBox="0 0 22.5 22.5">
  <path id="piggy-bank" d="M17.417,11a.917.917,0,1,1-.917-.917A.917.917,0,0,1,17.417,11ZM9.167.917a2.753,2.753,0,0,1,2.75,2.75h.917a3.667,3.667,0,0,0-7.333,0h.917A2.753,2.753,0,0,1,9.167.917ZM22,10.083v5.5H20.43a7.094,7.094,0,0,1-3.93,3.664V22H11.917V20.167H9.167V22H4.583V19.247a7.1,7.1,0,0,1-3.4-10.568A2.75,2.75,0,0,1,2.75,3.667v.917A1.833,1.833,0,0,0,1.743,7.948,7.088,7.088,0,0,1,7.1,5.5h6.875c.106,0,.212,0,.318.007A3.58,3.58,0,0,1,17.875,2.75h.458V6.99a7.19,7.19,0,0,1,2.289,3.093ZM21.083,11H19.966l-.1-.316A6.25,6.25,0,0,0,17.606,7.59l-.19-.137V3.713A2.542,2.542,0,0,0,15.142,6.04L15.1,6.5l-.461-.05a6.239,6.239,0,0,0-.658-.035H7.1a6.188,6.188,0,0,0-1.92,12.071l.316.1v2.493H8.25V19.25h4.583v1.833h2.75V18.59l.316-.1a6.18,6.18,0,0,0,3.806-3.536l.116-.285h1.261V11Z" transform="translate(0.25 0.25)" fill="#0f655d" stroke="#0f655d" stroke-width="0.5"/>
</svg>
