<svg width="24" height="15" viewBox="0 0 24 15" fill="none" xmlns="http://www.w3.org/2000/svg">
<path d="M23.5976 9.35662C23.4803 9.83796 23.4133 10.3417 23.2289 10.7951C22.4747 12.6533 21.1004 13.7895 19.1172 14.0805C16.5027 14.4667 14.1563 12.9499 13.3574 10.4201C13.2568 10.0954 13.2066 9.75401 13.1284 9.38461C13.0557 9.38461 12.9608 9.38461 12.8658 9.38461C9.53059 9.38461 6.18981 9.38461 2.85461 9.38461C2.50266 9.38461 2.15629 9.35102 1.83785 9.18871C1.13953 8.8305 0.770813 8.24841 0.75964 7.47043C0.74288 5.88647 0.74288 4.29692 0.75964 2.71296C0.7764 1.64393 1.55294 0.877144 2.61998 0.815576C2.6926 0.809979 2.77081 0.809979 2.84344 0.809979C8.43003 0.809979 14.0222 0.809979 19.6088 0.804382C20.296 0.804382 20.877 1.01147 21.3015 1.57117C21.5809 1.93498 21.687 2.34916 21.687 2.80252C21.6814 3.42938 21.6814 4.05625 21.6926 4.67752C21.6926 4.77267 21.7373 4.9014 21.8099 4.96296C22.8211 5.88087 23.4133 7.01147 23.5641 8.37155C23.5697 8.41632 23.5865 8.4555 23.5976 8.50028C23.5976 8.79132 23.5976 9.07677 23.5976 9.35662ZM20.7429 4.24095C20.7429 3.75401 20.7429 3.31744 20.7429 2.87528C20.7429 2.11968 20.3742 1.75587 19.62 1.75587C14.0222 1.75587 8.42444 1.75587 2.82668 1.75587C2.07808 1.75587 1.70936 2.12528 1.70936 2.88647C1.70936 4.35849 1.70936 5.8361 1.70936 7.30811C1.70936 8.05811 2.07249 8.42752 2.80992 8.42752C6.17863 8.42752 9.54735 8.42752 12.9105 8.42752C12.9887 8.42752 13.0669 8.42752 13.1507 8.42752C13.2568 7.43684 13.592 6.56371 14.1675 5.78573C14.1954 5.74655 14.2289 5.69058 14.2233 5.6458C14.1898 5.38834 14.3239 5.22602 14.5306 5.09729C14.2233 4.84543 14.1507 4.62714 14.2736 4.39207C14.4077 4.1458 14.6311 4.10102 15.0166 4.23535C15.0837 3.84916 15.2122 3.69244 15.4747 3.67005C15.7485 3.65326 15.8937 3.79319 16.0166 4.21856C17.5809 3.48535 19.1507 3.48535 20.7429 4.24095ZM22.6479 8.91446C22.6479 6.55811 20.7149 4.62155 18.3574 4.62155C16.0054 4.62155 14.0948 6.53572 14.0837 8.89767C14.0725 11.254 15.9943 13.1962 18.3518 13.2018C20.7094 13.2074 22.6423 11.2708 22.6479 8.91446Z" fill="#0F655D"/>
<path d="M8.40224 4.24094C8.75978 4.10102 8.98883 4.14579 9.12291 4.37527C9.26816 4.61594 9.19554 4.83422 8.88828 5.09169C9.19554 5.38273 9.26258 5.57863 9.1285 5.8137C9.00001 6.03758 8.78213 6.08236 8.40224 5.96482C8.27375 6.3846 8.13967 6.53012 7.88269 6.51893C7.63129 6.50773 7.49721 6.35661 7.40783 5.9984C7.22347 5.9984 7.0447 6.02079 6.8771 5.98721C6.7933 5.97042 6.7095 5.86408 6.65923 5.78012C6.53073 5.54505 6.60336 5.35475 6.8771 5.12527C6.78772 4.96855 6.67598 4.82303 6.62012 4.66072C6.59219 4.57676 6.63688 4.45363 6.68157 4.36967C6.81006 4.1402 7.03911 4.10661 7.39107 4.23534C7.52515 3.80437 7.64247 3.67005 7.90503 3.67564C8.16202 3.68124 8.29051 3.82676 8.40224 4.24094Z" fill="#0F655D"/>
<path d="M4.58648 4.22975C4.98871 4.11781 5.201 4.16258 5.32391 4.40325C5.44681 4.63273 5.37977 4.82863 5.0781 5.10288C5.37977 5.37154 5.44681 5.56183 5.31832 5.8081C5.19541 6.03758 5.01106 6.08236 4.58089 5.97601C4.48033 6.379 4.32949 6.53572 4.06134 6.52452C3.79318 6.50773 3.64793 6.33982 3.60324 6.01519C3.42446 6.01519 3.25687 6.03758 3.09486 6.004C3.00547 5.98721 2.91609 5.89206 2.86581 5.8137C2.72055 5.58422 2.79877 5.36594 3.10044 5.09169C2.79877 4.85101 2.72614 4.63273 2.85463 4.39206C2.98871 4.14579 3.21217 4.10101 3.59765 4.23534C3.66469 3.84355 3.80435 3.67564 4.0781 3.67004C4.34625 3.67004 4.48592 3.82116 4.58648 4.22975Z" fill="#0F655D"/>
<path d="M11.2068 4.24097C11.2906 3.83238 11.4414 3.67007 11.7207 3.68126C11.9945 3.69246 12.1341 3.86597 12.1788 4.19619C12.3632 4.19619 12.5419 4.1738 12.7095 4.20738C12.7933 4.22417 12.8827 4.32492 12.933 4.40888C13.0671 4.63835 12.9833 4.85104 12.6872 5.10291C12.9889 5.36597 13.0615 5.58985 12.9218 5.82492C12.7878 6.0544 12.5531 6.09918 12.1956 5.95925C12.1062 6.35664 11.9721 6.51335 11.7151 6.52455C11.4526 6.53574 11.3129 6.38462 11.1956 5.97604C10.7989 6.08798 10.5978 6.04321 10.4693 5.81932C10.3297 5.57865 10.3967 5.37716 10.704 5.09731C10.4023 4.83985 10.3297 4.63276 10.4581 4.39768C10.5978 4.15701 10.8213 4.10664 11.2068 4.24097Z" fill="#0F655D"/>
<path d="M17.4021 10.1458C17.4747 10.0787 17.5362 10.0227 17.5921 9.96672C18.4859 9.0712 19.3798 8.17567 20.2736 7.28015C20.3462 7.20739 20.4245 7.13463 20.5083 7.07866C20.687 6.96672 20.9328 7.0003 21.0781 7.15142C21.2178 7.29694 21.2513 7.53202 21.1451 7.70552C21.0949 7.78948 21.0278 7.86224 20.9608 7.92941C19.9273 8.97045 18.8937 10.0059 17.8546 11.0413C17.5194 11.3772 17.296 11.3716 16.9608 11.0413C16.553 10.6328 16.1395 10.2242 15.7317 9.81C15.6479 9.72605 15.5697 9.6253 15.5306 9.51896C15.4692 9.32866 15.5194 9.14955 15.687 9.02082C15.8546 8.88649 16.039 8.8697 16.2233 8.99284C16.296 9.04321 16.363 9.10478 16.4245 9.16635C16.7485 9.47978 17.0613 9.79881 17.4021 10.1458Z" fill="#0F655D"/>
</svg>
