<svg xmlns="http://www.w3.org/2000/svg" width="74.823" height="74.825" viewBox="0 0 74.823 74.825">
  <g id="save-money" transform="translate(0 0)">
    <g id="Grupo_65060" data-name="Grupo 65060" transform="translate(51.422 40.29)">
      <g id="Grupo_65059" data-name="Grupo 65059">
        <path id="Trazado_13688" data-name="Trazado 13688" d="M353.5,278.912a1.607,1.607,0,1,1,1.485-2.221A1.616,1.616,0,0,1,353.5,278.912Z" transform="translate(-351.891 -275.707)" fill="#088D82"/>
      </g>
    </g>
    <path id="Trazado_13689" data-name="Trazado 13689" d="M174.494,26.889h9.262a11.776,11.776,0,0,1-11.763-11.763,11.905,11.905,0,0,1,3.458-8.4,11.568,11.568,0,0,1,16.61,0,11.905,11.905,0,0,1,3.458,8.4,11.776,11.776,0,0,1-11.763,11.763h9.262a15.042,15.042,0,0,0,1.333-22.415,14.782,14.782,0,0,0-21.19,0,15.042,15.042,0,0,0,1.334,22.415Z" transform="translate(-144.115 0)" fill="#00beb0"/>
    <g id="Grupo_65061" data-name="Grupo 65061" transform="translate(33.576 9.062)">
      <path id="Trazado_13690" data-name="Trazado 13690" d="M235.838,74.141a6.064,6.064,0,1,1,6.064-6.064A6.071,6.071,0,0,1,235.838,74.141Zm0-8.913a2.849,2.849,0,1,0,2.849,2.849A2.853,2.853,0,0,0,235.838,65.228Z" transform="translate(-229.774 -62.013)" fill="#00beb0"/>
    </g>
    <g id="Grupo_65062" data-name="Grupo 65062" transform="translate(0 19.866)">
      <path id="Trazado_13691" data-name="Trazado 13691" d="M68.768,156.336H67.129a23.459,23.459,0,0,0-3.6-7.717l6.314-7.465a1.608,1.608,0,0,0-.091-2.175A10.351,10.351,0,0,0,57.8,137.034l-1.957.976c-.759-.405-1.541-.782-2.339-1.129a14.966,14.966,0,0,1-1.544,2.836,29.021,29.021,0,0,1,3.049,1.5,1.607,1.607,0,0,0,1.513.042l2.712-1.352a7.139,7.139,0,0,1,7.1.412l-6.091,7.2a1.607,1.607,0,0,0-.029,2.041,20.364,20.364,0,0,1,4.059,8.7,1.608,1.608,0,0,0,1.575,1.284h2.914a2.853,2.853,0,0,1,2.849,2.849v4.457a2.853,2.853,0,0,1-2.849,2.849c-.379,0-3.721,0-4.31.026a1.607,1.607,0,0,0-1.4.961,21.317,21.317,0,0,1-6.529,8.389,1.607,1.607,0,0,0-.641,1.276c0,.521-.006,2.509-.009,4.478a2.905,2.905,0,0,1-4.909,2.051,2.692,2.692,0,0,1-.793-1.917c0-.931,0-1.67,0-1.917a1.615,1.615,0,0,0-2.364-1.423c-3.67,2.1-12.648,2.1-16.32,0a1.608,1.608,0,0,0-2.363,1.419v1.922a2.713,2.713,0,0,1-2.709,2.71,2.862,2.862,0,0,1-3-2.844c0-2.126-.008-4.386-.011-5.218a1.607,1.607,0,0,0-.72-1.334c-15.9-10.565-12.774-31.372,4.639-38.575a14.968,14.968,0,0,1-1.539-2.829c-10.361,4.5-16.911,13.659-16.71,23.738a7.508,7.508,0,0,1-3.653-1.979,7.169,7.169,0,0,1-2.2-5.153,1.607,1.607,0,1,0-3.215,0,10.681,10.681,0,0,0,9.38,10.441A25.739,25.739,0,0,0,20.2,180.476c0,1.084.006,2.764.009,4.367.248,7.661,11.249,8.228,12.118.585a27.185,27.185,0,0,0,14.648,0,5.958,5.958,0,0,0,6.051,5.47,6.073,6.073,0,0,0,6.064-6.056c0-1.4,0-2.807.006-3.69a24.664,24.664,0,0,0,6.463-8.221c.911-.007,2.246-.009,3.209-.009a6.071,6.071,0,0,0,6.064-6.064V162.4A6.071,6.071,0,0,0,68.768,156.336Z" transform="translate(-0.009 -135.942)" fill="#088D82"/>
    </g>
    <g id="Grupo_65063" data-name="Grupo 65063" transform="translate(26.891 26.889)">
      <path id="Trazado_13692" data-name="Trazado 13692" d="M207.918,187.219H185.634a1.607,1.607,0,1,1,0-3.215h22.284a1.607,1.607,0,0,1,0,3.215Z" transform="translate(-184.027 -184.004)" fill="#088D82"/>
    </g>
  </g>
</svg>
