<svg width="16" height="19" viewBox="0 0 16 19" fill="none" xmlns="http://www.w3.org/2000/svg">
<path d="M0.937508 6.40444C0.937508 5.20983 0.951475 4.01996 0.932853 2.82534C0.918886 2.05738 1.52876 1.70658 2.10138 1.82035C4.03341 2.20908 5.82112 1.82035 7.45985 0.706333C7.83695 0.450345 8.20473 0.469307 8.57717 0.725295C9.92727 1.6497 11.417 2.05738 13.0371 1.95309C13.3677 1.92939 13.6936 1.86776 14.0194 1.82035C14.5734 1.73503 15.0157 2.09056 15.0623 2.65943C15.0669 2.73528 15.0669 2.81586 15.0669 2.89171C15.0669 5.00598 15.0762 7.11551 15.0669 9.22979C15.053 12.1025 13.9031 14.3875 11.6079 16.0704C10.6163 16.7957 9.62466 17.5115 8.62838 18.232C8.16749 18.5639 7.8416 18.5639 7.38071 18.232C6.27736 17.4309 5.14607 16.6629 4.07531 15.8144C2.02224 14.1979 0.99803 12.0362 0.946819 9.40045C0.923542 8.39546 0.937508 7.39995 0.937508 6.40444ZM2.71591 3.73552C2.71125 3.79715 2.7066 3.8493 2.7066 3.90618C2.7066 5.75025 2.68332 7.59905 2.71125 9.44311C2.74384 11.5005 3.57717 13.1739 5.18797 14.4159C6.06321 15.0938 6.98034 15.7243 7.86954 16.3832C7.97661 16.4638 8.04179 16.4449 8.13956 16.3737C8.96823 15.767 9.80157 15.1744 10.6256 14.5629C12.3854 13.2592 13.2792 11.4958 13.2885 9.28193C13.2978 7.50898 13.2885 5.73128 13.2885 3.95833C13.2885 3.88248 13.2885 3.81137 13.2885 3.73552C13.2234 3.73552 13.1861 3.73552 13.1535 3.73552C11.3658 3.86352 9.69449 3.46057 8.13956 2.55988C8.02782 2.49351 7.94403 2.50773 7.8416 2.56936C6.6498 3.26147 5.36954 3.66442 4.00082 3.73552C3.58183 3.75449 3.15352 3.73552 2.71591 3.73552Z" fill="#0F655D"/>
<path d="M10.6767 8.02094C10.6441 9.45731 9.51278 10.6661 8.12545 10.7136C7.56213 10.7325 7.15245 10.3912 7.12451 9.88396C7.09658 9.34354 7.44574 8.95956 8.01837 8.9169C8.40012 8.88845 8.67014 8.70357 8.81446 8.34803C8.98671 7.93087 8.80049 7.44259 8.40943 7.22927C8.01371 7.01595 7.5342 7.12972 7.27349 7.5137C7.10124 7.76969 6.88708 7.95457 6.57517 7.98301C6.21204 8.0162 5.9234 7.87398 5.73252 7.56111C5.54165 7.24823 5.5463 6.9164 5.74649 6.60826C6.33774 5.6886 7.18504 5.23825 8.2558 5.35202C9.37777 5.47054 10.1413 6.11525 10.5091 7.20557C10.6068 7.46156 10.6254 7.74599 10.6767 8.02094Z" fill="#0F655D"/>
<path d="M8.87967 12.5245C8.87502 13.0175 8.4793 13.4157 7.99048 13.4109C7.5063 13.4062 7.1199 13.0033 7.12455 12.5055C7.12921 12.0077 7.52493 11.6143 8.01375 11.6238C8.50258 11.6238 8.88433 12.022 8.87967 12.5245Z" fill="#0F655D"/>
</svg>
