<svg width="64" height="50" viewBox="0 0 64 50" fill="none" xmlns="http://www.w3.org/2000/svg">
<path d="M50.0595 25C50.0595 32.2917 50.0595 39.7917 50.0595 47.0833C50.0595 48.9583 49.0034 50 47.1024 50C39.076 50 31.2608 50 23.2344 50C21.3334 50 20.2773 48.9583 20.2773 47.0833C20.2773 32.2917 20.2773 17.7083 20.2773 2.91667C20.2773 1.04167 21.1222 0 23.0232 0C31.0496 0 38.8648 0 46.8912 0C48.7922 0 49.8483 1.04167 49.8483 2.91667C50.0595 10.2083 50.0595 17.7083 50.0595 25ZM21.9671 24.1667C21.9671 29.1667 21.9671 34.1667 21.9671 39.1667C21.9671 39.5833 22.1783 39.7917 22.6008 39.7917C31.0496 39.7917 39.2872 39.7917 47.7361 39.7917C48.1585 39.7917 48.3698 39.7917 48.3698 39.375C48.3698 29.375 48.3698 19.375 48.3698 9.375C48.3698 8.95833 48.1585 8.75 47.7361 8.75C39.2872 8.75 31.0496 8.75 22.6008 8.75C22.1783 8.75 21.9671 8.95833 21.9671 9.375C21.9671 14.1667 21.9671 19.1667 21.9671 24.1667ZM36.7526 44.7917C36.7526 43.9583 35.9077 43.125 35.0628 43.125C34.0067 43.125 33.3731 43.9583 33.3731 44.7917C33.3731 45.625 34.2179 46.4583 35.0628 46.4583C36.1189 46.4583 36.7526 45.8333 36.7526 44.7917ZM35.0628 3.54167C34.4292 3.54167 34.0067 3.54167 33.3731 3.54167C32.7394 3.54167 32.3169 3.95833 32.5282 4.375C32.5282 4.79167 32.9506 5.20833 33.3731 5.20833C34.4292 5.20833 35.4853 5.20833 36.7526 5.20833C37.3863 5.20833 37.5975 4.79167 37.5975 4.375C37.5975 3.95833 37.175 3.54167 36.7526 3.54167C36.1189 3.54167 35.6965 3.54167 35.0628 3.54167ZM29.3599 5.20833C29.5711 5.20833 29.5711 5.20833 29.7823 5.20833C30.416 5.20833 30.8384 4.79167 30.8384 4.375C30.8384 3.95833 30.416 3.54167 29.9935 3.54167C29.7823 3.54167 29.5711 3.54167 29.3599 3.54167C28.7262 3.54167 28.515 3.95833 28.515 4.375C28.515 4.79167 28.9374 5.20833 29.3599 5.20833C29.1486 5.20833 29.1486 5.20833 29.3599 5.20833Z" fill="#00BEB0"/>
<path d="M21.967 24.1667C21.967 19.1667 21.967 14.1667 21.967 9.375C21.967 8.95833 21.967 8.75 22.6007 8.75C31.0496 8.75 39.2872 8.75 47.736 8.75C48.1585 8.75 48.3697 8.75 48.3697 9.375C48.3697 19.375 48.3697 29.375 48.3697 39.375C48.3697 39.7917 48.1585 39.7917 47.736 39.7917C39.2872 39.7917 31.0496 39.7917 22.6007 39.7917C22.1783 39.7917 21.967 39.7917 21.967 39.1667C21.967 34.1667 21.967 29.1667 21.967 24.1667ZM35.0628 32.7083C37.8086 32.7083 40.7657 32.7083 43.5116 32.7083C44.3565 32.7083 44.7789 32.5 44.7789 31.4583C44.5677 28.5417 43.3004 26.0417 40.9769 24.1667C40.5545 23.75 40.1321 23.75 39.7096 24.1667C37.175 26.25 33.373 26.25 30.8383 24.1667C30.4159 23.75 29.9934 23.75 29.571 24.1667C27.2476 26.0417 25.769 28.3333 25.769 31.4583C25.769 32.2917 25.9802 32.7083 27.0363 32.7083C29.3598 32.7083 32.3169 32.7083 35.0628 32.7083ZM35.0628 24.1667C38.0198 24.1667 40.3433 21.875 40.3433 18.9583C40.3433 16.0417 38.0198 13.75 35.0628 13.75C32.1057 13.75 29.7822 16.0417 29.7822 18.9583C29.7822 21.875 32.1057 24.1667 35.0628 24.1667Z" fill="#FEFEFE"/>
<path d="M36.7526 44.7917C36.7526 45.625 35.9077 46.4583 35.0628 46.4583C34.2179 46.4583 33.373 45.625 33.373 44.7917C33.373 43.75 34.2179 43.125 35.0628 43.125C36.1189 43.125 36.7526 43.9583 36.7526 44.7917Z" fill="#FEFEFE"/>
<path d="M35.0628 3.54199C35.4852 3.54199 36.1189 3.54199 36.5413 3.54199C37.175 3.54199 37.5974 3.95866 37.3862 4.37533C37.3862 4.79199 36.9638 5.20866 36.5413 5.20866C35.4852 5.20866 34.4291 5.20866 33.1618 5.20866C32.5281 5.20866 32.3169 4.79199 32.3169 4.37533C32.3169 3.95866 32.7393 3.54199 33.1618 3.54199C34.0067 3.54199 34.6403 3.54199 35.0628 3.54199Z" fill="#979797"/>
<path d="M29.3599 5.20866C29.1486 5.20866 29.1486 5.20866 28.9374 5.20866C28.3037 5.20866 28.0925 4.79199 28.0925 4.37533C28.0925 3.95866 28.515 3.54199 28.9374 3.54199C29.1486 3.54199 29.3599 3.54199 29.5711 3.54199C30.2047 3.54199 30.6272 3.95866 30.416 4.37533C30.416 4.79199 29.9935 5.20866 29.3599 5.20866C29.5711 5.20866 29.5711 5.20866 29.3599 5.20866Z" fill="#979797"/>
<path d="M35.0626 32.7087C32.3167 32.7087 29.3596 32.7087 26.6138 32.7087C25.7689 32.7087 25.3464 32.5003 25.3464 31.4587C25.5577 28.542 26.825 26.042 29.1484 24.167C29.5709 23.7503 29.9933 23.7503 30.4157 24.167C32.9504 26.2503 36.7524 26.2503 39.287 24.167C39.7095 23.7503 40.1319 23.7503 40.5544 24.167C42.8778 26.042 44.3563 28.3337 44.3563 31.4587C44.3563 32.292 44.1451 32.7087 43.089 32.7087C40.7656 32.7087 37.8085 32.7087 35.0626 32.7087Z" fill="#979797"/>
<path d="M35.0628 24.1667C32.1057 24.1667 29.7822 21.875 29.7822 18.9583C29.7822 16.0417 32.1057 13.75 35.0628 13.75C38.0199 13.75 40.3433 16.0417 40.3433 18.9583C40.3433 21.875 38.0199 24.1667 35.0628 24.1667Z" fill="#979797"/>
</svg>
