<?xml version="1.0" standalone="no"?>
<!DOCTYPE svg PUBLIC "-//W3C//DTD SVG 20010904//EN"
 "http://www.w3.org/TR/2001/REC-SVG-20010904/DTD/svg10.dtd">
<svg version="1.0" xmlns="http://www.w3.org/2000/svg"
 width="19.968" height="19.967" viewBox="0 0 224.000000 257.000000"
 preserveAspectRatio="xMidYMid meet">

<g transform="translate(0.000000,257.000000) scale(0.100000,-0.100000)"
fill="#000000" stroke="none">
<path d="M1236 2539 c-44 -34 -56 -70 -56 -163 0 -98 15 -86 -130 -106 -166
-23 -351 -97 -510 -203 -90 -60 -271 -239 -328 -324 -94 -139 -177 -346 -203
-502 -15 -88 -7 -118 33 -135 44 -19 77 -5 121 52 156 206 429 358 701 392 92
12 263 8 301 -6 12 -5 15 -24 15 -96 0 -149 40 -197 160 -190 17 2 97 74 287
265 248 246 265 265 280 316 17 60 13 122 -13 174 -19 38 -487 512 -526 533
-40 21 -101 18 -132 -7z"/>
<path d="M2033 1361 c-180 -189 -361 -291 -596 -336 -82 -15 -249 -20 -331 -9
l-46 7 0 88 c0 126 -28 182 -96 195 -74 14 -85 5 -351 -259 -284 -282 -300
-304 -290 -409 3 -36 15 -74 30 -101 14 -23 133 -148 264 -278 248 -246 278
-268 342 -254 33 7 75 48 90 88 6 16 11 63 11 106 l0 77 110 17 c301 45 558
186 769 421 151 167 272 432 297 652 6 47 4 55 -19 78 -47 47 -69 38 -184 -83z"/>
</g>
</svg>
