<svg xmlns="http://www.w3.org/2000/svg" width="19.968" height="19.967" viewBox="0 0 14.322 11.19">
  <path id="Icon_awesome-exchange-alt" data-name="Icon awesome-exchange-alt" d="M0,7.069V6.622a.671.671,0,0,1,.671-.671h10.07V4.608a.672.672,0,0,1,1.146-.475l2.238,2.238a.671.671,0,0,1,0,.949L11.888,9.558a.672.672,0,0,1-1.146-.475V7.741H.671A.671.671,0,0,1,0,7.069Zm13.651,4.252H3.581V9.979A.672.672,0,0,0,2.434,9.5L.2,11.742a.671.671,0,0,0,0,.949l2.238,2.238a.672.672,0,0,0,1.146-.475V13.112h10.07a.671.671,0,0,0,.671-.671v-.448A.671.671,0,0,0,13.651,11.321Z" transform="translate(0 -3.936)" fill="#00BEB0"/>
</svg>
