<svg xmlns="http://www.w3.org/2000/svg" width="55.27" height="51.55" viewBox="0 0 55.27 51.55">
  <g id="Grupo_64703" data-name="Grupo 64703" transform="translate(-836.73 -496)">
    <path id="Trazado_13653" data-name="Trazado 13653" d="M-2555.2,15607.4a14.912,14.912,0,0,0-14.787-15.033,14.913,14.913,0,0,0-14.79,15.033,2.13,2.13,0,0,1-2.112,2.148,2.13,2.13,0,0,1-2.113-2.148,19.2,19.2,0,0,1,19.015-19.333,19.2,19.2,0,0,1,19.013,19.333,2.13,2.13,0,0,1-2.113,2.148A2.13,2.13,0,0,1-2555.2,15607.4Zm-27.465-36.511a12.785,12.785,0,0,1,12.678-12.891,12.784,12.784,0,0,1,12.675,12.891,12.781,12.781,0,0,1-12.675,12.884A12.8,12.8,0,0,1-2582.663,15570.891Zm4.225,0a8.526,8.526,0,0,0,8.453,8.594,8.526,8.526,0,0,0,8.451-8.594,8.524,8.524,0,0,0-8.451-8.594A8.524,8.524,0,0,0-2578.437,15570.891Z" transform="translate(3425.73 -15062)" fill="#1b1b19"/>
    <g id="Grupo_64702" data-name="Grupo 64702" transform="translate(-5 2)">
      <rect id="Rect치ngulo_3670" data-name="Rect치ngulo 3670" width="4" height="20" rx="2" transform="translate(885 510)" fill="#1b1b19"/>
      <rect id="Rect치ngulo_3671" data-name="Rect치ngulo 3671" width="4" height="20" rx="2" transform="translate(897 518) rotate(90)" fill="#1b1b19"/>
    </g>
  </g>
</svg>
