<svg width="34" height="34" viewBox="0 0 34 34" fill="none" xmlns="http://www.w3.org/2000/svg">
<path d="M17.7825 15.0168C13.657 15.0168 9.53143 15.0168 5.54816 15.0168C5.12139 15.0168 5.26365 15.0168 5.26365 15.3001C5.26365 17.8501 5.26365 20.5418 5.26365 23.0918C5.26365 23.3751 5.26365 23.3751 5.54816 23.3751C7.25528 23.3751 12.3766 23.3751 14.226 23.3751C14.6528 23.3751 14.9373 23.5168 15.2218 23.6585C15.6486 24.0835 15.7908 24.5085 15.6486 25.0751C15.5063 25.6418 15.0795 25.9251 14.5105 26.0668C14.3682 26.0668 14.226 26.0668 14.0837 26.0668C12.2344 26.0668 7.11302 26.0668 5.26365 26.0668C3.98331 26.0668 2.98749 25.3585 2.56072 24.2251C2.41846 23.9418 2.41846 23.6585 2.41846 23.3751C2.41846 18.1335 2.41846 12.8918 2.41846 7.7918C2.41846 7.3668 2.41846 6.9418 2.41846 6.5168C2.56072 4.95846 3.69879 3.9668 5.26365 3.9668C6.25946 3.9668 7.11302 3.9668 8.10883 3.9668C14.6528 3.9668 21.0544 3.9668 27.5984 3.9668C28.7364 3.9668 29.59 4.3918 30.159 5.38346C30.4436 5.80846 30.5858 6.23346 30.5858 6.80013C30.5858 9.4918 30.5858 12.1835 30.5858 14.8751C30.5858 15.1585 30.5858 15.1585 30.3013 15.1585C27.0293 15.1585 23.7574 15.1585 20.4854 15.1585C19.4896 15.0168 18.636 15.0168 17.7825 15.0168ZM16.5021 9.4918C20.2009 9.4918 23.7574 9.4918 27.4561 9.4918C27.7406 9.4918 27.7406 9.4918 27.7406 9.20846C27.7406 8.35846 27.7406 7.65013 27.7406 6.80013C27.7406 6.5168 27.7406 6.5168 27.4561 6.5168H27.3139C23.7574 6.5168 20.2009 6.5168 16.5021 6.5168C12.8034 6.5168 9.24691 6.5168 5.54816 6.5168C5.26365 6.5168 5.26365 6.5168 5.26365 6.80013C5.26365 7.50846 5.26365 8.35846 5.26365 9.0668C5.26365 9.35013 5.26365 9.35013 5.54816 9.35013C9.10465 9.4918 12.8034 9.4918 16.5021 9.4918Z" fill="white"/>
<path d="M24.4685 15.7251C24.753 15.7251 25.0375 15.7251 25.322 15.8668C26.6024 16.0084 27.5982 16.5751 28.594 17.2834C29.3053 17.8501 29.8743 18.4168 30.3011 19.1251C30.3011 19.1251 30.3011 19.1251 30.4434 19.2668V19.1251C30.4434 18.7001 30.4434 18.1334 30.4434 17.7084C30.4434 17.4251 30.5856 17.1418 30.8702 17.1418C31.1547 17.1418 31.4392 17.2834 31.5815 17.4251C31.5815 17.5668 31.5815 17.5668 31.5815 17.7084C31.5815 18.2751 31.5815 18.8418 31.5815 19.4084C31.5815 20.5418 30.7279 21.2501 29.7321 21.2501C29.163 21.2501 28.594 21.2501 28.025 21.2501C27.5982 21.2501 27.4559 20.9668 27.4559 20.6834C27.4559 20.4001 27.7404 20.1168 28.025 20.1168C28.4517 20.1168 29.0208 20.1168 29.4476 20.1168H29.5898C29.4476 19.8334 29.3053 19.6918 29.0208 19.4084C28.025 18.2751 26.7446 17.4251 25.322 17.1418C23.4727 16.7168 21.7656 17.1418 20.343 18.2751C19.0626 19.2668 18.2091 20.5418 17.7823 22.1001C17.3555 23.9418 17.7823 25.6418 18.9204 27.0584C19.9162 28.3334 21.1965 29.1834 22.7614 29.6084C23.3304 29.7501 23.8994 29.7501 24.4685 29.7501C24.6107 29.7501 24.753 29.7501 24.8953 29.7501C25.1798 29.7501 25.322 30.0334 25.322 30.3168C25.322 30.6001 25.0375 30.8834 24.753 30.8834C23.0459 31.0251 21.3388 30.6001 19.9162 29.6084C18.2091 28.4751 17.071 26.7751 16.6442 24.7918C16.6442 24.5084 16.502 24.2251 16.502 23.9418V23.8001C16.502 23.5168 16.502 23.2334 16.502 22.9501V22.8084C16.502 22.5251 16.502 22.2418 16.6442 21.9584C16.9287 20.4001 17.64 19.1251 18.6358 18.1334C19.7739 17.0001 21.0543 16.2918 22.7614 16.0084C23.0459 16.0084 23.3304 15.8668 23.6149 15.8668C23.8994 15.7251 24.184 15.7251 24.4685 15.7251Z" fill="white"/>
<path d="M24.6107 20.9669C24.6107 21.6752 24.6107 22.5252 24.6107 23.2335C24.6107 23.3752 24.6107 23.6585 24.3262 23.8002C23.6149 24.5085 22.7613 25.3585 22.05 26.0669C21.6232 26.4919 21.1965 26.3502 21.0542 25.7835C21.0542 25.5002 21.0542 25.3585 21.1965 25.2169C21.481 24.9335 21.6232 24.7919 21.9078 24.5085C22.3345 24.0835 22.7613 23.6585 23.1881 23.2335C23.3303 23.0919 23.3303 23.0919 23.3303 22.9502C23.3303 21.5335 23.3303 20.1169 23.3303 18.7002C23.3303 18.4169 23.4726 18.1335 23.7571 18.1335C24.1839 17.9919 24.6107 18.2752 24.6107 18.7002C24.6107 19.4085 24.6107 20.1169 24.6107 20.9669Z" fill="white"/>
<path d="M26.8869 30.1749C26.6024 30.1749 26.4601 30.0332 26.3179 29.7499C26.3179 29.4665 26.3179 29.1832 26.6024 29.0415C26.7447 28.8999 27.0292 28.7582 27.1714 28.7582C27.4559 28.6165 27.7405 28.7582 27.8827 29.0415C28.025 29.3249 27.8827 29.6082 27.5982 29.7499C27.4559 29.8915 27.1714 30.0332 27.0292 30.0332C27.0292 30.1749 27.0292 30.1749 26.8869 30.1749Z" fill="white"/>
<path d="M30.1587 25.2167C30.1587 25.075 30.3009 24.7917 30.4432 24.5083C30.5855 24.225 30.87 24.0833 31.1545 24.225C31.439 24.3667 31.5813 24.5083 31.5813 24.7917C31.5813 25.075 31.439 25.2167 31.439 25.5C31.2968 25.7833 31.0122 25.925 30.7277 25.7833C30.301 25.7833 30.1587 25.6417 30.1587 25.2167Z" fill="white"/>
<path d="M29.3051 28.4753C29.0206 28.4753 28.8783 28.3336 28.7361 28.1919C28.5938 28.0503 28.5938 27.7669 28.7361 27.6253C28.8783 27.4836 29.0206 27.2003 29.1629 27.0586C29.3051 26.9169 29.7319 26.7753 29.8742 27.0586C30.1587 27.2003 30.1587 27.6253 30.0164 27.7669C29.8742 27.9086 29.7319 28.1919 29.5896 28.3336C29.5896 28.3336 29.4474 28.4753 29.3051 28.4753Z" fill="white"/>
</svg>
