<svg xmlns="http://www.w3.org/2000/svg" width="19.968" height="16.64" viewBox="0 0 19.968 16.64">
  <path id="wallet_1_" data-name="wallet (1)" d="M17.472,5.328H4.16A2.506,2.506,0,0,1,2.3,4.5,2.492,2.492,0,0,1,4.16,3.664H19.136a.832.832,0,1,0,0-1.664H4.16A4.16,4.16,0,0,0,0,6.16v8.32a4.16,4.16,0,0,0,4.16,4.16H17.472a2.5,2.5,0,0,0,2.5-2.5V7.824A2.5,2.5,0,0,0,17.472,5.328ZM18.3,16.144a.833.833,0,0,1-.832.832H4.16a2.5,2.5,0,0,1-2.5-2.5V6.158a4.17,4.17,0,0,0,2.5.834H17.472a.833.833,0,0,1,.832.832Zm-1.664-4.16a.832.832,0,1,1-.832-.832A.832.832,0,0,1,16.64,11.984Z" transform="translate(0 -2)" fill="#00BEB0"/>
</svg>
