<?xml version="1.0" standalone="no"?>
<!DOCTYPE svg PUBLIC "-//W3C//DTD SVG 20010904//EN"
 "http://www.w3.org/TR/2001/REC-SVG-20010904/DTD/svg10.dtd">
<svg version="1.0" xmlns="http://www.w3.org/2000/svg"
 width="19.968" height="19.967" viewBox="0 0 512.000000 512.000000"
 preserveAspectRatio="xMidYMid meet">

<g transform="translate(0.000000,512.000000) scale(0.100000,-0.100000)"
fill="#000000" stroke="none">
<path d="M705 4854 c-264 -54 -489 -287 -535 -554 -8 -46 -10 -535 -8 -1700
l3 -1635 28 -88 c96 -306 307 -512 616 -600 l76 -22 1720 -3 c1941 -3 1805 -8
1975 75 165 81 296 236 356 423 14 45 18 104 22 328 l4 272 -309 0 c-354 0
-401 7 -533 71 -115 57 -231 170 -283 279 -55 113 -70 184 -70 335 0 210 49
347 170 475 82 88 155 136 263 174 l85 31 338 3 337 3 0 328 c0 182 -5 352
-10 382 -32 167 -165 314 -335 370 -33 11 -396 15 -1950 19 l-1910 5 -57 27
c-79 37 -142 98 -181 177 -29 59 -32 74 -32 156 0 76 4 99 26 145 32 69 75
119 137 159 100 64 30 61 1509 61 1481 0 1386 -4 1438 64 59 78 34 189 -55
234 l-44 22 -1361 -1 c-1143 -1 -1371 -3 -1430 -15z"/>
<path d="M950 4318 c-47 -32 -71 -68 -77 -116 -7 -54 24 -118 74 -152 l37 -25
1265 0 1266 0 37 23 c49 31 82 99 75 154 -6 48 -30 84 -77 116 l-33 22 -1267
0 -1267 0 -33 -22z"/>
<path d="M4313 2386 c-91 -29 -157 -89 -199 -181 -25 -54 -28 -71 -28 -170 0
-99 3 -116 29 -172 32 -72 93 -134 163 -166 45 -21 64 -22 365 -25 l317 -3 0
365 0 366 -302 -1 c-220 0 -314 -4 -345 -13z"/>
</g>
</svg>
