<svg width="164" height="108" viewBox="0 0 164 108" fill="none" xmlns="http://www.w3.org/2000/svg">
<path d="M73.1132 22.6662C82.3858 32.0925 92.2 43.0675 91.9969 54.9852C91.8615 66.8355 81.5736 79.5611 68.5784 85.3516C55.5832 91.0747 39.7453 89.8628 28.3068 83.1296C16.8006 76.3292 9.69383 63.9402 4.82062 49.1273C-0.120272 34.3818 -2.82761 17.2123 4.54988 8.18994C11.9274 -0.765116 29.322 -1.57309 42.3849 1.92813C55.3802 5.42936 63.9083 13.3071 73.1132 22.6662Z" fill="#ADF4EF"/>
<path d="M157.994 51.4552C167.267 71.9616 166.68 94.2725 150.012 103.213C133.344 112.154 100.594 107.807 80.9911 96.4871C61.2708 85.2497 54.6974 66.958 61.7404 48.5844C68.7833 30.2107 89.56 11.837 109.515 12.0011C129.47 12.1651 148.721 30.8669 157.994 51.4552Z" fill="#F1FFFF"/>
<path d="M114.982 85.8334C114.982 86.6732 114.649 87.4787 114.055 88.0725C113.461 88.6664 112.656 89 111.816 89H42.1714C41.3317 89 40.5264 88.6664 39.9326 88.0725C39.3389 87.4787 39.0053 86.6732 39.0053 85.8334C39.0053 84.9935 39.3389 84.188 39.9326 83.5942C40.5264 83.0003 41.3317 82.6667 42.1714 82.6667H111.808C112.225 82.6657 112.637 82.7469 113.022 82.9056C113.407 83.0643 113.757 83.2973 114.052 83.5915C114.347 83.8857 114.581 84.2351 114.74 84.6198C114.9 85.0045 114.982 85.4169 114.982 85.8334ZM39.9262 40.0844C39.2443 38.8193 38.9283 37.3893 39.0137 35.9546C39.099 34.5199 39.5824 33.1375 40.4095 31.9622C41.7624 29.9769 43.5742 28.3475 45.6913 27.2123L69.4478 14.8501C71.7815 13.6347 74.3739 13 77.0051 13C79.6363 13 82.2287 13.6347 84.5625 14.8501L108.304 27.2199C110.422 28.3546 112.235 29.9841 113.589 31.9698C114.417 33.1455 114.901 34.5287 114.986 35.9641C115.072 37.3995 114.755 38.8303 114.073 40.0958C113.337 41.4838 112.235 42.6435 110.887 43.4488C109.538 44.2541 107.995 44.6741 106.424 44.6631H105.484V69.9925H108.642C109.482 69.9925 110.287 70.3261 110.881 70.92C111.475 71.5138 111.808 72.3193 111.808 73.1591C111.808 73.999 111.475 74.8044 110.881 75.3983C110.287 75.9922 109.482 76.3258 108.642 76.3258H45.3374C44.4977 76.3258 43.6924 75.9922 43.0987 75.3983C42.5049 74.8044 42.1714 73.999 42.1714 73.1591C42.1714 72.3193 42.5049 71.5138 43.0987 70.92C43.6924 70.3261 44.4977 69.9925 45.3374 69.9925H48.5186V44.6707H47.5787C46.0075 44.6824 44.4632 44.2627 43.1139 43.4574C41.7646 42.6521 40.662 41.492 39.9262 40.1034V40.0844ZM54.8316 70.0001H64.3449V44.6707H54.8316V70.0001ZM70.6617 44.6707V70.0001H83.3257V44.6707H70.6617ZM99.152 44.6707H89.6387V70.0001H99.152V44.6707ZM45.5352 37.1499C45.7351 37.5155 46.0312 37.8194 46.3914 38.0287C46.7516 38.238 47.1622 38.3448 47.5787 38.3374H106.409C106.825 38.3448 107.236 38.238 107.596 38.0287C107.956 37.8194 108.252 37.5155 108.452 37.1499C108.597 36.9079 108.667 36.6284 108.653 36.3467C108.64 36.065 108.543 35.7936 108.376 35.5666C107.61 34.4263 106.58 33.4876 105.374 32.83L81.6248 20.4603C80.194 19.7176 78.6057 19.3299 76.9937 19.3299C75.3817 19.3299 73.7934 19.7176 72.3627 20.4603L48.6213 32.83C47.4157 33.4899 46.386 34.4297 45.619 35.5704C45.4513 35.7963 45.354 36.0666 45.3391 36.3475C45.3242 36.6285 45.3924 36.9075 45.5352 37.1499Z" fill="#00BEB0"/>
</svg>
