<svg xmlns="http://www.w3.org/2000/svg" width="15.295" height="15.291" viewBox="0 0 15.295 15.291">
  <path id="Icon_awesome-instagram" data-name="Icon awesome-instagram" d="M7.644,5.963a3.92,3.92,0,1,0,3.92,3.92A3.914,3.914,0,0,0,7.644,5.963Zm0,6.469a2.549,2.549,0,1,1,2.549-2.549,2.553,2.553,0,0,1-2.549,2.549Zm5-6.63a.914.914,0,1,1-.914-.914A.912.912,0,0,1,12.639,5.8Zm2.6.928A4.525,4.525,0,0,0,14,3.527a4.555,4.555,0,0,0-3.2-1.235c-1.262-.072-5.046-.072-6.309,0a4.549,4.549,0,0,0-3.2,1.232,4.54,4.54,0,0,0-1.235,3.2c-.072,1.262-.072,5.046,0,6.309a4.525,4.525,0,0,0,1.235,3.2,4.561,4.561,0,0,0,3.2,1.235c1.262.072,5.046.072,6.309,0A4.525,4.525,0,0,0,14,16.24a4.555,4.555,0,0,0,1.235-3.2c.072-1.262.072-5.043,0-6.305ZM13.6,14.391a2.58,2.58,0,0,1-1.454,1.454,16.852,16.852,0,0,1-4.507.307,16.983,16.983,0,0,1-4.507-.307,2.58,2.58,0,0,1-1.454-1.454,16.852,16.852,0,0,1-.307-4.507,16.983,16.983,0,0,1,.307-4.507A2.58,2.58,0,0,1,3.136,3.922a16.852,16.852,0,0,1,4.507-.307,16.984,16.984,0,0,1,4.507.307A2.58,2.58,0,0,1,13.6,5.376a16.852,16.852,0,0,1,.307,4.507A16.842,16.842,0,0,1,13.6,14.391Z" transform="translate(0.005 -2.238)" fill="#e4cea1"/>
</svg>
