<svg xmlns="http://www.w3.org/2000/svg" width="18.134" height="12.75" viewBox="0 0 18.134 12.75">
  <path id="Icon_awesome-youtube" data-name="Icon awesome-youtube" d="M18.805,6.5a2.279,2.279,0,0,0-1.6-1.614A53.847,53.847,0,0,0,10.117,4.5a53.847,53.847,0,0,0-7.085.381A2.279,2.279,0,0,0,1.429,6.5a23.9,23.9,0,0,0-.379,4.393,23.9,23.9,0,0,0,.379,4.393,2.245,2.245,0,0,0,1.6,1.588,53.848,53.848,0,0,0,7.085.381,53.847,53.847,0,0,0,7.085-.381,2.245,2.245,0,0,0,1.6-1.588,23.9,23.9,0,0,0,.379-4.393A23.9,23.9,0,0,0,18.805,6.5ZM8.262,13.584V8.192l4.74,2.7-4.74,2.7Z" transform="translate(-1.05 -4.5)" fill="#e4cea1"/>
</svg>
