<svg xmlns="http://www.w3.org/2000/svg" width="16.5" height="16.463" viewBox="0 0 20.5 20.463">
  <path id="Exclusión_1" data-name="Exclusión 1" d="M7132,9347.928h-14a3,3,0,0,1-3-3v-7.665a3,3,0,0,1,.995-2.229l7-6.3a3,3,0,0,1,4.014,0l7,6.3a3,3,0,0,1,.992,2.229v7.665A3,3,0,0,1,7132,9347.928Zm-8-10h2a3,3,0,0,1,3,3v5.5h3a1.5,1.5,0,0,0,1.5-1.5v-7.665a1.5,1.5,0,0,0-.5-1.114l-7-6.3a1.5,1.5,0,0,0-2.008,0l-7,6.3a1.508,1.508,0,0,0-.5,1.114v7.665a1.5,1.5,0,0,0,1.5,1.5h3v-5.5A3,3,0,0,1,7124,9337.927Zm0,1.5a1.5,1.5,0,0,0-1.5,1.5v5.5h5v-5.5a1.5,1.5,0,0,0-1.5-1.5Z" transform="translate(-7114.749 -9327.715)" fill="#0f655d" stroke="#0f655d" stroke-width="0.5"/>
</svg>
