<svg id="Group_11" data-name="Group 11" xmlns="http://www.w3.org/2000/svg" width="24.681" height="23.922" viewBox="0 0 24.681 23.922">
  <path id="D" d="M0,23.922V0H7.347q6.322,0,9.3,3.212,3.007,3.212,3.007,8.817,0,5.5-3.007,8.714-2.973,3.178-9.3,3.178Zm2.871-2.392H7.279A11.522,11.522,0,0,0,12.815,20.4a6.6,6.6,0,0,0,2.973-3.281,13.3,13.3,0,0,0,.889-5.092,13.5,13.5,0,0,0-.889-5.16,6.581,6.581,0,0,0-2.973-3.315A11.237,11.237,0,0,0,7.279,2.392H2.871Z" transform="translate(2.529)" fill="#eac52d"/>
  <rect id="Rectangle_12" data-name="Rectangle 12" width="24.681" height="2.373" transform="translate(0 8.058)" fill="#eac52d"/>
  <rect id="Rectangle_13" data-name="Rectangle 13" width="24.681" height="2.373" transform="translate(0 12.954)" fill="#eac52d"/>
</svg>
