<svg xmlns="http://www.w3.org/2000/svg" width="18.827" height="15.291" viewBox="0 0 18.827 15.291">
  <path id="Icon_awesome-twitter" data-name="Icon awesome-twitter" d="M16.892,7.192c.012.167.012.335.012.5A10.9,10.9,0,0,1,5.925,18.672,10.9,10.9,0,0,1,0,16.94a7.983,7.983,0,0,0,.932.048,7.728,7.728,0,0,0,4.79-1.649,3.865,3.865,0,0,1-3.608-2.676,4.866,4.866,0,0,0,.729.06,4.081,4.081,0,0,0,1.015-.131A3.859,3.859,0,0,1,.765,8.8V8.757a3.886,3.886,0,0,0,1.744.49A3.864,3.864,0,0,1,1.314,4.086,10.968,10.968,0,0,0,9.27,8.123a4.356,4.356,0,0,1-.1-.884A3.862,3.862,0,0,1,15.853,4.6,7.6,7.6,0,0,0,18.3,3.667a3.848,3.848,0,0,1-1.7,2.126,7.735,7.735,0,0,0,2.222-.6,8.294,8.294,0,0,1-1.935,1.995Z" transform="translate(0 -3.381)" fill="#00beb0"/>
</svg>
