<svg xmlns="http://www.w3.org/2000/svg" width="32.02" height="22.514" viewBox="0 0 32.02 22.514">
  <path id="Icon_awesome-youtube" data-name="Icon awesome-youtube" d="M32.4,8.023A4.023,4.023,0,0,0,29.57,5.173C27.073,4.5,17.06,4.5,17.06,4.5s-10.013,0-12.51.673A4.023,4.023,0,0,0,1.719,8.023,42.206,42.206,0,0,0,1.05,15.78a42.206,42.206,0,0,0,.669,7.757,3.963,3.963,0,0,0,2.831,2.8c2.5.673,12.51.673,12.51.673s10.013,0,12.51-.673a3.963,3.963,0,0,0,2.831-2.8,42.206,42.206,0,0,0,.669-7.757A42.206,42.206,0,0,0,32.4,8.023ZM13.785,20.541V11.019l8.369,4.761-8.369,4.761Z" transform="translate(-1.05 -4.5)" fill="#0f655d"/>
</svg>
